  0
SECTION
  2
HEADER
  9
$ACADVER
  1
AC1006
  9
$EXTMIN
 10
0.000000
 20
0.000000
 30
0.000000
  9
$EXTMAX
 10
1100.000000
 20
850.000000
 30
0.000000
  0
ENDSEC
  0
SECTION
  2
ENTITIES
  0
POLYLINE
  8
0
 66
1
 70
1
  0
VERTEX
  8
0
 10
503.500000
 20
730.568965
 42
0.030389
  0
VERTEX
  8
0
 10
486.587288
 20
726.686707
 42
0.043433
  0
VERTEX
  8
0
 10
472.258393
 20
721.076091
 42
0.050069
  0
VERTEX
  8
0
 10
460.854059
 20
713.924935
 42
0.074307
  0
VERTEX
  8
0
 10
452.723951
 20
705.410705
 42
-0.017907
  0
VERTEX
  8
0
 10
450.633197
 20
702.659273
 42
-0.109178
  0
VERTEX
  8
0
 10
449.239017
 20
701.559939
 42
-0.098726
  0
VERTEX
  8
0
 10
447.451031
 20
701.096927
 42
-0.013339
  0
VERTEX
  8
0
 10
443.557500
 20
700.980477
 42
0.023917
  0
VERTEX
  8
0
 10
436.145478
 20
700.601788
 42
0.009699
  0
VERTEX
  8
0
 10
426.101368
 20
699.408309
 42
0.009771
  0
VERTEX
  8
0
 10
415.737162
 20
697.765399
 42
0.016440
  0
VERTEX
  8
0
 10
407.122974
 20
695.932693
 42
0.035367
  0
VERTEX
  8
0
 10
394.861280
 20
691.961476
 42
0.039366
  0
VERTEX
  8
0
 10
383.733838
 20
686.412207
 42
0.043330
  0
VERTEX
  8
0
 10
374.972493
 20
680.052243
 42
0.101710
  0
VERTEX
  8
0
 10
370.078147
 20
673.661430
 42
0.143401
  0
VERTEX
  8
0
 10
368.334689
 20
663.254005
 42
0.152564
  0
VERTEX
  8
0
 10
372.558641
 20
653.837759
 42
0.103871
  0
VERTEX
  8
0
 10
383.193487
 20
645.930722
 42
0.044999
  0
VERTEX
  8
0
 10
399.885026
 20
639.981348
 42
0.000000
  0
VERTEX
  8
0
 10
404.270053
 20
638.850194
 42
0.000000
  0
VERTEX
  8
0
 10
398.925946
 20
636.374234
 42
0.096893
  0
VERTEX
  8
0
 10
385.853102
 20
626.901617
 42
0.216958
  0
VERTEX
  8
0
 10
382.042155
 20
615.526455
 42
0.183579
  0
VERTEX
  8
0
 10
387.999911
 20
603.714217
 42
0.070288
  0
VERTEX
  8
0
 10
403.438850
 20
593.147389
 42
0.041345
  0
VERTEX
  8
0
 10
416.053712
 20
588.149615
 42
0.031796
  0
VERTEX
  8
0
 10
430.479222
 20
584.756807
 42
0.032051
  0
VERTEX
  8
0
 10
445.055265
 20
583.245039
 42
0.044997
  0
VERTEX
  8
0
 10
458.112179
 20
583.907160
 42
0.005737
  0
VERTEX
  8
0
 10
461.820821
 20
584.475538
 42
0.004876
  0
VERTEX
  8
0
 10
465.722593
 20
585.158569
 42
0.004919
  0
VERTEX
  8
0
 10
469.263029
 20
585.850080
 42
0.013799
  0
VERTEX
  8
0
 10
471.722170
 20
586.426710
 42
-0.015272
  0
VERTEX
  8
0
 10
474.834037
 20
587.146732
 42
-0.102719
  0
VERTEX
  8
0
 10
476.410308
 20
587.134307
 42
-0.107758
  0
VERTEX
  8
0
 10
477.817648
 20
586.493480
 42
-0.017570
  0
VERTEX
  8
0
 10
480.168808
 20
584.603383
 42
0.075267
  0
VERTEX
  8
0
 10
497.660331
 20
573.588323
 42
0.041122
  0
VERTEX
  8
0
 10
521.701595
 20
565.365695
 42
0.035833
  0
VERTEX
  8
0
 10
550.748439
 20
560.208476
 42
0.026139
  0
VERTEX
  8
0
 10
583.500000
 20
558.509871
 42
0.025742
  0
VERTEX
  8
0
 10
615.884018
 20
560.192827
 42
0.034658
  0
VERTEX
  8
0
 10
644.796490
 20
565.235788
 42
0.039264
  0
VERTEX
  8
0
 10
669.278297
 20
573.361344
 42
0.063340
  0
VERTEX
  8
0
 10
688.254112
 20
584.364172
 42
-0.031188
  0
VERTEX
  8
0
 10
691.168830
 20
586.314110
 42
-0.070379
  0
VERTEX
  8
0
 10
693.624001
 20
587.313955
 42
-0.041327
  0
VERTEX
  8
0
 10
696.970342
 20
587.866352
 42
-0.005320
  0
VERTEX
  8
0
 10
704.224237
 20
588.377535
 42
0.029596
  0
VERTEX
  8
0
 10
730.474746
 20
591.513235
 42
0.067343
  0
VERTEX
  8
0
 10
749.438889
 20
597.641270
 42
0.103545
  0
VERTEX
  8
0
 10
760.911486
 20
606.424203
 42
0.181776
  0
VERTEX
  8
0
 10
764.972461
 20
617.500000
 42
0.147885
  0
VERTEX
  8
0
 10
762.627491
 20
625.031687
 42
0.053787
  0
VERTEX
  8
0
 10
755.321735
 20
633.653704
 42
0.048454
  0
VERTEX
  8
0
 10
744.937918
 20
641.771838
 42
0.045883
  0
VERTEX
  8
0
 10
733.000000
 20
647.911416
 42
-0.002488
  0
VERTEX
  8
0
 10
731.636258
 20
648.469264
 42
-0.003588
  0
VERTEX
  8
0
 10
730.436115
 20
648.977302
 42
-0.001895
  0
VERTEX
  8
0
 10
729.425474
 20
649.418252
 42
-0.057252
  0
VERTEX
  8
0
 10
729.186773
 20
649.557976
 42
-0.430657
  0
VERTEX
  8
0
 10
729.163814
 20
649.759326
 42
-0.003327
  0
VERTEX
  8
0
 10
730.344049
 20
651.142413
 42
-0.009106
  0
VERTEX
  8
0
 10
731.789274
 20
652.753151
 42
-0.005411
  0
VERTEX
  8
0
 10
733.566289
 20
654.621599
 42
0.021224
  0
VERTEX
  8
0
 10
738.127583
 20
659.731831
 42
0.045819
  0
VERTEX
  8
0
 10
741.078334
 20
664.094510
 42
0.055160
  0
VERTEX
  8
0
 10
742.846951
 20
668.361872
 42
0.048103
  0
VERTEX
  8
0
 10
743.744151
 20
673.115069
 42
0.129007
  0
VERTEX
  8
0
 10
742.008563
 20
683.463583
 42
0.094684
  0
VERTEX
  8
0
 10
735.297689
 20
693.033349
 42
0.071263
  0
VERTEX
  8
0
 10
723.563671
 20
701.555339
 42
0.037428
  0
VERTEX
  8
0
 10
707.000000
 20
708.774729
 42
0.022568
  0
VERTEX
  8
0
 10
695.882157
 20
712.105528
 42
0.028467
  0
VERTEX
  8
0
 10
685.335249
 20
714.123341
 42
0.023782
  0
VERTEX
  8
0
 10
673.230291
 20
715.149377
 42
0.010191
  0
VERTEX
  8
0
 10
657.000000
 20
715.419193
 42
0.003766
  0
VERTEX
  8
0
 10
645.406772
 20
715.288300
 42
0.012237
  0
VERTEX
  8
0
 10
637.727315
 20
714.955619
 42
0.017177
  0
VERTEX
  8
0
 10
631.620026
 20
714.329781
 42
0.016604
  0
VERTEX
  8
0
 10
625.500000
 20
713.281289
 42
0.000000
  0
VERTEX
  8
0
 10
615.500000
 20
711.224191
 42
0.000000
  0
VERTEX
  8
0
 10
609.659592
 20
714.172129
 42
0.025297
  0
VERTEX
  8
0
 10
600.237075
 20
718.344475
 42
0.014579
  0
VERTEX
  8
0
 10
588.524556
 20
722.449659
 42
0.013801
  0
VERTEX
  8
0
 10
575.615665
 20
726.166712
 42
0.013732
  0
VERTEX
  8
0
 10
562.500000
 20
729.172681
 42
0.032585
  0
VERTEX
  8
0
 10
550.422341
 20
730.784728
 42
0.010971
  0
VERTEX
  8
0
 10
532.661234
 20
731.595237
 42
0.010793
  0
VERTEX
  8
0
 10
514.997054
 20
731.631926
 42
0.036359
  0
SEQEND
  0
POLYLINE
  8
0
 66
1
 70
1
  0
VERTEX
  8
0
 10
565.000000
 20
725.526834
 42
-0.014591
  0
VERTEX
  8
0
 10
576.507600
 20
722.759429
 42
-0.012528
  0
VERTEX
  8
0
 10
588.440163
 20
719.195509
 42
-0.012936
  0
VERTEX
  8
0
 10
599.439984
 20
715.290074
 42
-0.024876
  0
VERTEX
  8
0
 10
607.992207
 20
711.503924
 42
0.000000
  0
VERTEX
  8
0
 10
615.241875
 20
707.853050
 42
0.000000
  0
VERTEX
  8
0
 10
622.370938
 20
709.388092
 42
-0.039038
  0
VERTEX
  8
0
 10
647.835545
 20
712.822153
 42
-0.037426
  0
VERTEX
  8
0
 10
673.891667
 20
712.332107
 42
-0.038844
  0
VERTEX
  8
0
 10
698.513481
 20
708.073377
 42
-0.052620
  0
VERTEX
  8
0
 10
719.673492
 20
700.251773
 42
-0.044084
  0
VERTEX
  8
0
 10
729.267699
 20
694.404858
 42
-0.070439
  0
VERTEX
  8
0
 10
736.106340
 20
687.692556
 42
-0.085431
  0
VERTEX
  8
0
 10
739.931090
 20
680.410522
 42
-0.108186
  0
VERTEX
  8
0
 10
740.670321
 20
672.864187
 42
-0.060046
  0
VERTEX
  8
0
 10
739.583888
 20
668.382596
 42
-0.053862
  0
VERTEX
  8
0
 10
737.437157
 20
664.107887
 42
-0.043745
  0
VERTEX
  8
0
 10
733.994921
 20
659.676783
 42
-0.021845
  0
VERTEX
  8
0
 10
728.939121
 20
654.683026
 42
0.000000
  0
VERTEX
  8
0
 10
722.689680
 20
649.027607
 42
0.000000
  0
VERTEX
  8
0
 10
726.594840
 20
647.467016
 42
-0.025812
  0
VERTEX
  8
0
 10
738.545048
 20
641.960446
 42
-0.037587
  0
VERTEX
  8
0
 10
748.378947
 20
635.815017
 42
-0.044108
  0
VERTEX
  8
0
 10
755.691198
 20
629.377798
 42
-0.088867
  0
VERTEX
  8
0
 10
759.909729
 20
622.988203
 42
-0.048620
  0
VERTEX
  8
0
 10
761.391972
 20
618.346451
 42
-0.093230
  0
VERTEX
  8
0
 10
761.493271
 20
614.452322
 42
-0.093983
  0
VERTEX
  8
0
 10
760.174081
 20
610.808229
 42
-0.050033
  0
VERTEX
  8
0
 10
757.320060
 20
606.932507
 42
-0.104032
  0
VERTEX
  8
0
 10
748.603659
 20
600.593720
 42
-0.040265
  0
VERTEX
  8
0
 10
734.456855
 20
595.574195
 42
-0.035712
  0
VERTEX
  8
0
 10
716.961300
 20
592.226154
 42
-0.027985
  0
VERTEX
  8
0
 10
697.668297
 20
591.033675
 42
0.019258
  0
VERTEX
  8
0
 10
694.304093
 20
590.884594
 42
0.062305
  0
VERTEX
  8
0
 10
692.119690
 20
590.425294
 42
0.065607
  0
VERTEX
  8
0
 10
690.176465
 20
589.455935
 42
0.023003
  0
VERTEX
  8
0
 10
687.668297
 20
587.589493
 42
-0.054852
  0
VERTEX
  8
0
 10
675.790631
 20
579.872872
 42
-0.031753
  0
VERTEX
  8
0
 10
660.109143
 20
573.186084
 42
-0.027510
  0
VERTEX
  8
0
 10
641.086663
 20
567.621743
 42
-0.018854
  0
VERTEX
  8
0
 10
619.000000
 20
563.331322
 42
-0.028393
  0
VERTEX
  8
0
 10
604.204258
 20
561.885794
 42
-0.010239
  0
VERTEX
  8
0
 10
583.061803
 20
561.459911
 42
-0.010251
  0
VERTEX
  8
0
 10
561.904070
 20
561.900861
 42
-0.028103
  0
VERTEX
  8
0
 10
547.035650
 20
563.355596
 42
-0.019880
  0
VERTEX
  8
0
 10
527.442963
 20
567.194326
 42
-0.026868
  0
VERTEX
  8
0
 10
510.132398
 20
572.302629
 42
-0.030222
  0
VERTEX
  8
0
 10
495.430827
 20
578.537446
 42
-0.047105
  0
VERTEX
  8
0
 10
483.750818
 20
585.789901
 42
0.000000
  0
VERTEX
  8
0
 10
477.001635
 20
590.918595
 42
0.000000
  0
VERTEX
  8
0
 10
469.250818
 20
588.790736
 42
-0.045750
  0
VERTEX
  8
0
 10
459.229962
 20
587.003500
 42
-0.024297
  0
VERTEX
  8
0
 10
446.620189
 20
586.543347
 42
-0.024102
  0
VERTEX
  8
0
 10
433.705945
 20
587.323067
 42
-0.036820
  0
VERTEX
  8
0
 10
422.673061
 20
589.354724
 42
-0.025356
  0
VERTEX
  8
0
 10
411.318295
 20
592.947120
 42
-0.035515
  0
VERTEX
  8
0
 10
401.642530
 20
597.362590
 42
-0.040616
  0
VERTEX
  8
0
 10
393.864954
 20
602.461591
 42
-0.063999
  0
VERTEX
  8
0
 10
388.250000
 20
608.120701
 42
-0.062447
  0
VERTEX
  8
0
 10
385.994100
 20
611.980406
 42
-0.081154
  0
VERTEX
  8
0
 10
385.013087
 20
615.950608
 42
-0.084145
  0
VERTEX
  8
0
 10
385.361177
 20
619.913801
 42
-0.073137
  0
VERTEX
  8
0
 10
386.992044
 20
623.754941
 42
-0.084204
  0
VERTEX
  8
0
 10
389.944260
 20
627.151391
 42
-0.033254
  0
VERTEX
  8
0
 10
394.996546
 20
630.764081
 42
-0.030387
  0
VERTEX
  8
0
 10
401.338032
 20
634.175304
 42
-0.026066
  0
VERTEX
  8
0
 10
408.375388
 20
636.991393
 42
0.004839
  0
VERTEX
  8
0
 10
412.665415
 20
638.500278
 42
0.046398
  0
VERTEX
  8
0
 10
414.416331
 20
639.325887
 42
0.393610
  0
VERTEX
  8
0
 10
414.575238
 20
639.863326
 42
0.226573
  0
VERTEX
  8
0
 10
414.000000
 20
640.312250
 42
0.000210
  0
VERTEX
  8
0
 10
412.504538
 20
640.641394
 42
0.000030
  0
VERTEX
  8
0
 10
409.428623
 20
641.316839
 42
0.000034
  0
VERTEX
  8
0
 10
405.788744
 20
642.115639
 42
0.000029
  0
VERTEX
  8
0
 10
401.948503
 20
642.957904
 42
-0.053313
  0
VERTEX
  8
0
 10
383.283013
 20
649.192669
 42
-0.148634
  0
VERTEX
  8
0
 10
373.046102
 20
658.243938
 42
-0.224977
  0
VERTEX
  8
0
 10
371.883057
 20
668.861993
 42
-0.126007
  0
VERTEX
  8
0
 10
379.197744
 20
679.925491
 42
-0.078787
  0
VERTEX
  8
0
 10
389.004043
 20
686.331741
 42
-0.034492
  0
VERTEX
  8
0
 10
403.618033
 20
691.707219
 42
-0.031225
  0
VERTEX
  8
0
 10
421.147483
 20
695.647099
 42
-0.026228
  0
VERTEX
  8
0
 10
440.086575
 20
697.666216
 42
0.000000
  0
VERTEX
  8
0
 10
451.673150
 20
698.289778
 42
0.000000
  0
VERTEX
  8
0
 10
454.490825
 20
702.743563
 42
-0.091736
  0
VERTEX
  8
0
 10
462.154829
 20
711.019282
 42
-0.045616
  0
VERTEX
  8
0
 10
474.387532
 20
718.512936
 42
-0.041714
  0
VERTEX
  8
0
 10
489.381015
 20
724.416140
 42
-0.038903
  0
VERTEX
  8
0
 10
505.500000
 20
727.918126
 42
-0.023587
  0
VERTEX
  8
0
 10
509.424740
 20
728.268360
 42
-0.004948
  0
VERTEX
  8
0
 10
516.318750
 20
728.488632
 42
-0.005177
  0
VERTEX
  8
0
 10
524.329672
 20
728.582286
 42
-0.004881
  0
VERTEX
  8
0
 10
532.500000
 20
728.513439
 42
-0.004498
  0
VERTEX
  8
0
 10
543.610612
 20
728.211332
 42
-0.013865
  0
VERTEX
  8
0
 10
551.111164
 20
727.731323
 42
-0.017451
  0
VERTEX
  8
0
 10
557.585826
 20
726.907642
 42
-0.011348
  0
SEQEND
  0
POLYLINE
  8
0
 66
1
 70
1
  0
VERTEX
  8
0
 10
105.296343
 20
720.741265
 42
0.043641
  0
VERTEX
  8
0
 10
93.231812
 20
682.050816
 42
0.053812
  0
VERTEX
  8
0
 10
89.178702
 20
644.500000
 42
0.053812
  0
VERTEX
  8
0
 10
93.231812
 20
606.949184
 42
0.043641
  0
VERTEX
  8
0
 10
105.296343
 20
568.258735
 42
0.000000
  0
VERTEX
  8
0
 10
109.500000
 20
558.017470
 42
0.000000
  0
VERTEX
  8
0
 10
186.173333
 20
558.008735
 42
0.000000
  0
VERTEX
  8
0
 10
262.846667
 20
558.000000
 42
0.000000
  0
VERTEX
  8
0
 10
258.891624
 20
567.250000
 42
-0.024790
  0
VERTEX
  8
0
 10
251.898793
 20
586.143880
 42
-0.022466
  0
VERTEX
  8
0
 10
246.546723
 20
606.264176
 42
-0.023007
  0
VERTEX
  8
0
 10
243.145045
 20
626.194095
 42
-0.030771
  0
VERTEX
  8
0
 10
242.017379
 20
644.500000
 42
-0.030771
  0
VERTEX
  8
0
 10
243.145045
 20
662.805905
 42
-0.023007
  0
VERTEX
  8
0
 10
246.546723
 20
682.735824
 42
-0.022466
  0
VERTEX
  8
0
 10
251.898793
 20
702.856120
 42
-0.024790
  0
VERTEX
  8
0
 10
258.891624
 20
721.750000
 42
0.000000
  0
VERTEX
  8
0
 10
262.846667
 20
731.000000
 42
0.000000
  0
VERTEX
  8
0
 10
186.173333
 20
730.991265
 42
0.000000
  0
VERTEX
  8
0
 10
109.500000
 20
730.982530
 42
0.000000
  0
SEQEND
  0
POLYLINE
  8
0
 66
1
 70
1
  0
VERTEX
  8
0
 10
258.000000
 20
727.604709
 42
-0.095456
  0
VERTEX
  8
0
 10
257.943619
 20
727.312074
 42
-0.000809
  0
VERTEX
  8
0
 10
257.080382
 20
725.165089
 42
-0.002821
  0
VERTEX
  8
0
 10
256.069331
 20
722.702283
 42
-0.001810
  0
VERTEX
  8
0
 10
254.869386
 20
719.854709
 42
0.027151
  0
VERTEX
  8
0
 10
248.428446
 20
702.107322
 42
0.021576
  0
VERTEX
  8
0
 10
243.369993
 20
682.355091
 42
0.021783
  0
VERTEX
  8
0
 10
240.085933
 20
662.510533
 42
0.030120
  0
VERTEX
  8
0
 10
239.000000
 20
644.500000
 42
0.030120
  0
VERTEX
  8
0
 10
240.085933
 20
626.489467
 42
0.021783
  0
VERTEX
  8
0
 10
243.369993
 20
606.644909
 42
0.021576
  0
VERTEX
  8
0
 10
248.428446
 20
586.892678
 42
0.027151
  0
VERTEX
  8
0
 10
254.869386
 20
569.145291
 42
-0.001810
  0
VERTEX
  8
0
 10
256.069331
 20
566.297717
 42
-0.002821
  0
VERTEX
  8
0
 10
257.080382
 20
563.834911
 42
-0.000809
  0
VERTEX
  8
0
 10
257.943619
 20
561.687926
 42
-0.095456
  0
VERTEX
  8
0
 10
258.000000
 20
561.395291
 42
-0.412603
  0
VERTEX
  8
0
 10
257.838188
 20
561.232586
 42
-0.000029
  0
VERTEX
  8
0
 10
236.449830
 20
561.116117
 42
-0.000842
  0
VERTEX
  8
0
 10
212.768546
 20
561.028405
 42
-0.000505
  0
VERTEX
  8
0
 10
184.637721
 20
561.000000
 42
0.000000
  0
VERTEX
  8
0
 10
111.275441
 20
561.000000
 42
0.000000
  0
VERTEX
  8
0
 10
107.220235
 20
571.250000
 42
-0.025655
  0
VERTEX
  8
0
 10
99.296506
 20
594.732456
 42
-0.029805
  0
VERTEX
  8
0
 10
94.278142
 20
617.763229
 42
-0.031273
  0
VERTEX
  8
0
 10
92.200234
 20
640.180726
 42
-0.035070
  0
VERTEX
  8
0
 10
93.071223
 20
661.829561
 42
-0.017231
  0
VERTEX
  8
0
 10
95.121883
 20
675.894220
 42
-0.017146
  0
VERTEX
  8
0
 10
98.138831
 20
689.807724
 42
-0.016851
  0
VERTEX
  8
0
 10
102.159978
 20
703.712190
 42
-0.015381
  0
VERTEX
  8
0
 10
107.220235
 20
717.750000
 42
0.000000
  0
VERTEX
  8
0
 10
111.275441
 20
728.000000
 42
0.000000
  0
VERTEX
  8
0
 10
184.637721
 20
728.000000
 42
-0.000505
  0
VERTEX
  8
0
 10
212.768546
 20
727.971595
 42
-0.000842
  0
VERTEX
  8
0
 10
236.449830
 20
727.883883
 42
-0.000029
  0
VERTEX
  8
0
 10
257.838188
 20
727.767414
 42
-0.412603
  0
SEQEND
  0
POLYLINE
  8
0
 66
1
 70
1
  0
VERTEX
  8
0
 10
863.194355
 20
634.684003
 42
0.000000
  0
VERTEX
  8
0
 10
806.888711
 20
588.500000
 42
0.000000
  0
VERTEX
  8
0
 10
868.976139
 20
588.242418
 42
0.000000
  0
VERTEX
  8
0
 10
931.063568
 20
587.984836
 42
0.000000
  0
VERTEX
  8
0
 10
986.281784
 20
633.113848
 42
0.000185
  0
VERTEX
  8
0
 10
1007.555339
 20
650.513514
 42
0.000295
  0
VERTEX
  8
0
 10
1025.709783
 20
665.391168
 42
0.000050
  0
VERTEX
  8
0
 10
1041.768483
 20
678.569910
 42
0.016987
  0
VERTEX
  8
0
 10
1042.964286
 20
679.621430
 42
0.664462
  0
VERTEX
  8
0
 10
1042.660685
 20
680.434398
 42
0.004731
  0
VERTEX
  8
0
 10
1032.850456
 20
680.738374
 42
0.004993
  0
VERTEX
  8
0
 10
1016.608519
 20
680.925613
 42
0.000649
  0
VERTEX
  8
0
 10
981.964286
 20
680.934003
 42
0.000000
  0
VERTEX
  8
0
 10
919.500000
 20
680.868007
 42
0.000000
  0
SEQEND
  0
POLYLINE
  8
0
 66
1
 70
1
  0
VERTEX
  8
0
 10
1035.916667
 20
677.643580
 42
-0.005503
  0
VERTEX
  8
0
 10
1035.573651
 20
677.356638
 42
-0.000001
  0
VERTEX
  8
0
 10
1020.120308
 20
664.716048
 42
-0.000028
  0
VERTEX
  8
0
 10
1002.991223
 20
650.706382
 42
-0.000017
  0
VERTEX
  8
0
 10
982.726934
 20
634.135466
 42
0.000000
  0
VERTEX
  8
0
 10
929.953869
 20
590.983773
 42
0.000000
  0
VERTEX
  8
0
 10
872.647924
 20
591.241887
 42
0.000000
  0
VERTEX
  8
0
 10
815.341979
 20
591.500000
 42
0.000000
  0
VERTEX
  8
0
 10
867.920990
 20
634.667690
 42
0.000000
  0
VERTEX
  8
0
 10
920.500000
 20
677.835379
 42
0.000000
  0
VERTEX
  8
0
 10
978.416667
 20
677.917690
 42
-0.000576
  0
VERTEX
  8
0
 10
1000.596527
 20
677.923666
 42
-0.000971
  0
VERTEX
  8
0
 10
1019.197917
 20
677.871123
 42
-0.000059
  0
VERTEX
  8
0
 10
1035.863102
 20
677.789724
 42
-0.694821
  0
SEQEND
  0
POLYLINE
  8
0
 66
1
 70
1
  0
VERTEX
  8
0
 10
579.517371
 20
527.846550
 42
0.015759
  0
VERTEX
  8
0
 10
562.247402
 20
525.776479
 42
0.018323
  0
VERTEX
  8
0
 10
545.997169
 20
522.694124
 42
0.015702
  0
VERTEX
  8
0
 10
528.097068
 20
518.018527
 42
0.007603
  0
VERTEX
  8
0
 10
505.500000
 20
510.976298
 42
-0.008545
  0
VERTEX
  8
0
 10
483.114234
 20
504.046149
 42
-0.016535
  0
VERTEX
  8
0
 10
464.958334
 20
499.408957
 42
-0.018236
  0
VERTEX
  8
0
 10
447.759185
 20
496.269857
 42
-0.013381
  0
VERTEX
  8
0
 10
428.500000
 20
494.000339
 42
-0.030462
  0
VERTEX
  8
0
 10
402.081698
 20
493.217202
 42
-0.024574
  0
VERTEX
  8
0
 10
373.773168
 20
495.498317
 42
-0.024249
  0
VERTEX
  8
0
 10
345.381413
 20
500.607069
 42
-0.027191
  0
VERTEX
  8
0
 10
318.705047
 20
508.303706
 42
0.000000
  0
VERTEX
  8
0
 10
309.000000
 20
511.685065
 42
0.000000
  0
VERTEX
  8
0
 10
309.000000
 20
480.060027
 42
0.000000
  0
VERTEX
  8
0
 10
309.000000
 20
448.434989
 42
0.000000
  0
VERTEX
  8
0
 10
320.250000
 20
444.788216
 42
0.020532
  0
VERTEX
  8
0
 10
347.433912
 20
437.194201
 42
0.024604
  0
VERTEX
  8
0
 10
373.562380
 20
432.381376
 42
0.025537
  0
VERTEX
  8
0
 10
399.160010
 20
430.280330
 42
0.025801
  0
VERTEX
  8
0
 10
424.750000
 20
430.811584
 42
0.014645
  0
VERTEX
  8
0
 10
445.273770
 20
432.904731
 42
0.019707
  0
VERTEX
  8
0
 10
463.681890
 20
436.070887
 42
0.018337
  0
VERTEX
  8
0
 10
482.773162
 20
440.872757
 42
0.010424
  0
VERTEX
  8
0
 10
505.500000
 20
448.000922
 42
-0.010554
  0
VERTEX
  8
0
 10
526.655756
 20
454.630299
 42
-0.016322
  0
VERTEX
  8
0
 10
545.210797
 20
459.366592
 42
-0.017334
  0
VERTEX
  8
0
 10
563.178285
 20
462.684667
 42
-0.014353
  0
VERTEX
  8
0
 10
582.500000
 20
464.999661
 42
-0.030462
  0
VERTEX
  8
0
 10
608.918302
 20
465.782798
 42
-0.024574
  0
VERTEX
  8
0
 10
637.226832
 20
463.501683
 42
-0.024249
  0
VERTEX
  8
0
 10
665.618587
 20
458.392931
 42
-0.027191
  0
VERTEX
  8
0
 10
692.294953
 20
450.696294
 42
0.000000
  0
VERTEX
  8
0
 10
702.000000
 20
447.314935
 42
0.000000
  0
VERTEX
  8
0
 10
702.000000
 20
478.939973
 42
0.000000
  0
VERTEX
  8
0
 10
702.000000
 20
510.565011
 42
0.000000
  0
VERTEX
  8
0
 10
690.750000
 20
514.221650
 42
0.022472
  0
VERTEX
  8
0
 10
662.357361
 20
522.058965
 42
0.025632
  0
VERTEX
  8
0
 10
634.591478
 20
526.914872
 42
0.026265
  0
VERTEX
  8
0
 10
607.096856
 20
528.825104
 42
0.026163
  0
SEQEND
  0
POLYLINE
  8
0
 66
1
 70
1
  0
VERTEX
  8
0
 10
623.500000
 20
524.999661
 42
-0.012751
  0
VERTEX
  8
0
 10
640.771181
 20
522.986449
 42
-0.014367
  0
VERTEX
  8
0
 10
657.238909
 20
520.154987
 42
-0.014600
  0
VERTEX
  8
0
 10
673.274840
 20
516.430623
 42
-0.014114
  0
VERTEX
  8
0
 10
689.250000
 20
511.739381
 42
0.000000
  0
VERTEX
  8
0
 10
699.000000
 20
508.574698
 42
0.000000
  0
VERTEX
  8
0
 10
699.000000
 20
480.287349
 42
-0.002733
  0
VERTEX
  8
0
 10
698.940722
 20
469.440626
 42
-0.004555
  0
VERTEX
  8
0
 10
698.757701
 20
460.309409
 42
-0.000834
  0
VERTEX
  8
0
 10
698.511563
 20
452.325655
 42
-0.404730
  0
VERTEX
  8
0
 10
698.175152
 20
452.000000
 42
-0.072274
  0
VERTEX
  8
0
 10
697.602199
 20
452.083254
 42
-0.002441
  0
VERTEX
  8
0
 10
695.411465
 20
452.745295
 42
-0.004565
  0
VERTEX
  8
0
 10
692.829942
 20
453.565077
 42
-0.003162
  0
VERTEX
  8
0
 10
689.925152
 20
454.537175
 42
0.026457
  0
VERTEX
  8
0
 10
665.073878
 20
461.585446
 42
0.023104
  0
VERTEX
  8
0
 10
638.469123
 20
466.351418
 42
0.023205
  0
VERTEX
  8
0
 10
611.672936
 20
468.625396
 42
0.027440
  0
VERTEX
  8
0
 10
586.250000
 20
468.203158
 42
0.013495
  0
VERTEX
  8
0
 10
565.813046
 20
466.184404
 42
0.021187
  0
VERTEX
  8
0
 10
548.413936
 20
463.236826
 42
0.018740
  0
VERTEX
  8
0
 10
529.878556
 20
458.550141
 42
0.008044
  0
VERTEX
  8
0
 10
505.500000
 20
450.976298
 42
-0.008545
  0
VERTEX
  8
0
 10
483.114234
 20
444.046149
 42
-0.016535
  0
VERTEX
  8
0
 10
464.958334
 20
439.408957
 42
-0.018236
  0
VERTEX
  8
0
 10
447.759185
 20
436.269857
 42
-0.013381
  0
VERTEX
  8
0
 10
428.500000
 20
434.000339
 42
-0.028925
  0
VERTEX
  8
0
 10
402.944508
 20
433.164213
 42
-0.024619
  0
VERTEX
  8
0
 10
376.033919
 20
435.168873
 42
-0.023958
  0
VERTEX
  8
0
 10
348.668893
 20
439.908287
 42
-0.023619
  0
VERTEX
  8
0
 10
321.750000
 20
447.260619
 42
0.000000
  0
VERTEX
  8
0
 10
312.000000
 20
450.425302
 42
0.000000
  0
VERTEX
  8
0
 10
312.000000
 20
478.712651
 42
-0.002794
  0
VERTEX
  8
0
 10
312.060616
 20
489.559370
 42
-0.004658
  0
VERTEX
  8
0
 10
312.247763
 20
498.690591
 42
-0.000872
  0
VERTEX
  8
0
 10
312.499536
 20
506.667352
 42
-0.404494
  0
VERTEX
  8
0
 10
312.843450
 20
507.000000
 42
-0.070339
  0
VERTEX
  8
0
 10
313.407386
 20
506.920273
 42
-0.003631
  0
VERTEX
  8
0
 10
315.174185
 20
506.396586
 42
-0.005710
  0
VERTEX
  8
0
 10
317.269402
 20
505.732730
 42
-0.004109
  0
VERTEX
  8
0
 10
319.593450
 20
504.945825
 42
0.026741
  0
VERTEX
  8
0
 10
344.827328
 20
497.656217
 42
0.023541
  0
VERTEX
  8
0
 10
371.790013
 20
492.730788
 42
0.023656
  0
VERTEX
  8
0
 10
398.944275
 20
490.381325
 42
0.027845
  0
VERTEX
  8
0
 10
424.750000
 20
490.811584
 42
0.014645
  0
VERTEX
  8
0
 10
445.273770
 20
492.904731
 42
0.019707
  0
VERTEX
  8
0
 10
463.681890
 20
496.070887
 42
0.018337
  0
VERTEX
  8
0
 10
482.773162
 20
500.872757
 42
0.010424
  0
VERTEX
  8
0
 10
505.500000
 20
508.000922
 42
-0.019245
  0
VERTEX
  8
0
 10
537.758492
 20
517.497095
 42
-0.026189
  0
VERTEX
  8
0
 10
567.509955
 20
523.386880
 42
-0.028261
  0
VERTEX
  8
0
 10
595.762886
 20
525.838723
 42
-0.030158
  0
SEQEND
  0
POLYLINE
  8
0
 66
1
 70
1
  0
VERTEX
  8
0
 10
739.000000
 20
424.500000
 42
0.000000
  0
VERTEX
  8
0
 10
739.000000
 20
332.686520
 42
0.000000
  0
VERTEX
  8
0
 10
759.750000
 20
333.371363
 42
0.017360
  0
VERTEX
  8
0
 10
798.906458
 20
336.026680
 42
0.026978
  0
VERTEX
  8
0
 10
832.333320
 20
341.296628
 42
0.031456
  0
VERTEX
  8
0
 10
860.436465
 20
349.171424
 42
0.048255
  0
VERTEX
  8
0
 10
883.373075
 20
359.760983
 42
0.038830
  0
VERTEX
  8
0
 10
891.224191
 20
365.208493
 42
0.020685
  0
VERTEX
  8
0
 10
900.074769
 20
373.058743
 42
0.020413
  0
VERTEX
  8
0
 10
907.994187
 20
381.340455
 42
0.054863
  0
VERTEX
  8
0
 10
912.674519
 20
388.000000
 42
0.065982
  0
VERTEX
  8
0
 10
919.438286
 20
405.375968
 42
0.059932
  0
VERTEX
  8
0
 10
921.738820
 20
424.500000
 42
0.059932
  0
VERTEX
  8
0
 10
919.438286
 20
443.624032
 42
0.065982
  0
VERTEX
  8
0
 10
912.674519
 20
461.000000
 42
0.054863
  0
VERTEX
  8
0
 10
907.994187
 20
467.659545
 42
0.020413
  0
VERTEX
  8
0
 10
900.074769
 20
475.941257
 42
0.020685
  0
VERTEX
  8
0
 10
891.224191
 20
483.791507
 42
0.038830
  0
VERTEX
  8
0
 10
883.373075
 20
489.239017
 42
0.048255
  0
VERTEX
  8
0
 10
860.436465
 20
499.828576
 42
0.031456
  0
VERTEX
  8
0
 10
832.333320
 20
507.703372
 42
0.026978
  0
VERTEX
  8
0
 10
798.906458
 20
512.973320
 42
0.017360
  0
VERTEX
  8
0
 10
759.750000
 20
515.628637
 42
0.000000
  0
VERTEX
  8
0
 10
739.000000
 20
516.313480
 42
0.000000
  0
SEQEND
  0
POLYLINE
  8
0
 66
1
 70
1
  0
VERTEX
  8
0
 10
794.500000
 20
510.438316
 42
-0.008309
  0
VERTEX
  8
0
 10
812.782153
 20
508.215295
 42
-0.014521
  0
VERTEX
  8
0
 10
827.827133
 20
505.684430
 42
-0.016267
  0
VERTEX
  8
0
 10
841.437060
 20
502.523134
 42
-0.014792
  0
VERTEX
  8
0
 10
855.255975
 20
498.394203
 42
-0.042012
  0
VERTEX
  8
0
 10
878.217779
 20
488.580340
 42
-0.061519
  0
VERTEX
  8
0
 10
896.199775
 20
475.992037
 42
-0.069309
  0
VERTEX
  8
0
 10
909.020649
 20
460.732036
 42
-0.075916
  0
VERTEX
  8
0
 10
916.702600
 20
443.000000
 42
-0.044896
  0
VERTEX
  8
0
 10
918.034251
 20
435.126363
 42
-0.019455
  0
VERTEX
  8
0
 10
918.447877
 20
424.500000
 42
-0.019455
  0
VERTEX
  8
0
 10
918.034251
 20
413.873637
 42
-0.044896
  0
VERTEX
  8
0
 10
916.702600
 20
406.000000
 42
-0.131835
  0
VERTEX
  8
0
 10
900.344068
 20
377.391599
 42
-0.092317
  0
VERTEX
  8
0
 10
869.649479
 20
356.161932
 42
-0.065938
  0
VERTEX
  8
0
 10
823.623437
 20
342.462423
 42
-0.030335
  0
VERTEX
  8
0
 10
761.250000
 20
336.395782
 42
0.000000
  0
VERTEX
  8
0
 10
742.000000
 20
335.696580
 42
0.000000
  0
VERTEX
  8
0
 10
742.000000
 20
424.500000
 42
0.000000
  0
VERTEX
  8
0
 10
742.000000
 20
513.303420
 42
0.000000
  0
VERTEX
  8
0
 10
761.250000
 20
512.604218
 42
-0.004151
  0
VERTEX
  8
0
 10
769.643574
 20
512.229547
 42
-0.003034
  0
VERTEX
  8
0
 10
778.957812
 20
511.679563
 42
-0.003066
  0
VERTEX
  8
0
 10
787.777258
 20
511.050741
 42
-0.006768
  0
SEQEND
  0
POLYLINE
  8
0
 66
1
 70
1
  0
VERTEX
  8
0
 10
99.000000
 20
314.500000
 42
0.000000
  0
VERTEX
  8
0
 10
99.000000
 20
128.000000
 42
0.000000
  0
VERTEX
  8
0
 10
185.500000
 20
128.000000
 42
0.000000
  0
VERTEX
  8
0
 10
272.000000
 20
128.000000
 42
0.000000
  0
VERTEX
  8
0
 10
272.000000
 20
314.500000
 42
0.000000
  0
VERTEX
  8
0
 10
272.000000
 20
501.000000
 42
0.000000
  0
VERTEX
  8
0
 10
185.500000
 20
501.000000
 42
0.000000
  0
VERTEX
  8
0
 10
99.000000
 20
501.000000
 42
0.000000
  0
SEQEND
  0
POLYLINE
  8
0
 66
1
 70
1
  0
VERTEX
  8
0
 10
269.000000
 20
314.500000
 42
0.000000
  0
VERTEX
  8
0
 10
269.000000
 20
131.000000
 42
0.000000
  0
VERTEX
  8
0
 10
185.500000
 20
131.000000
 42
0.000000
  0
VERTEX
  8
0
 10
102.000000
 20
131.000000
 42
0.000000
  0
VERTEX
  8
0
 10
102.000000
 20
314.500000
 42
0.000000
  0
VERTEX
  8
0
 10
102.000000
 20
498.000000
 42
0.000000
  0
VERTEX
  8
0
 10
185.500000
 20
498.000000
 42
0.000000
  0
VERTEX
  8
0
 10
269.000000
 20
498.000000
 42
0.000000
  0
SEQEND
  0
POLYLINE
  8
0
 66
1
 70
1
  0
VERTEX
  8
0
 10
309.000000
 20
325.082823
 42
0.000000
  0
VERTEX
  8
0
 10
309.000000
 20
264.165646
 42
0.000000
  0
VERTEX
  8
0
 10
321.250000
 20
260.133615
 42
0.011627
  0
VERTEX
  8
0
 10
338.430810
 20
254.918132
 42
0.015479
  0
VERTEX
  8
0
 10
354.277167
 20
251.031598
 42
0.015695
  0
VERTEX
  8
0
 10
370.154993
 20
248.172276
 42
0.012524
  0
VERTEX
  8
0
 10
387.423678
 20
246.059552
 42
0.032025
  0
VERTEX
  8
0
 10
414.858092
 20
245.163070
 42
0.029562
  0
VERTEX
  8
0
 10
442.936384
 20
247.710247
 42
0.027016
  0
VERTEX
  8
0
 10
472.801022
 20
253.875947
 42
0.018983
  0
VERTEX
  8
0
 10
505.638574
 20
263.874773
 42
-0.009613
  0
VERTEX
  8
0
 10
527.872044
 20
271.102579
 42
-0.016632
  0
VERTEX
  8
0
 10
546.643634
 20
276.132906
 42
-0.018284
  0
VERTEX
  8
0
 10
564.398555
 20
279.584371
 42
-0.015353
  0
VERTEX
  8
0
 10
583.423678
 20
281.969817
 42
-0.030893
  0
VERTEX
  8
0
 10
608.568478
 20
282.781345
 42
-0.026089
  0
VERTEX
  8
0
 10
635.101308
 20
280.609592
 42
-0.025179
  0
VERTEX
  8
0
 10
662.252343
 20
275.551498
 42
-0.023883
  0
VERTEX
  8
0
 10
689.250000
 20
267.721309
 42
0.000000
  0
VERTEX
  8
0
 10
702.000000
 20
263.353502
 42
0.000000
  0
VERTEX
  8
0
 10
702.000000
 20
324.676751
 42
0.000000
  0
VERTEX
  8
0
 10
702.000000
 20
386.000000
 42
0.000000
  0
VERTEX
  8
0
 10
505.500000
 20
386.000000
 42
0.000000
  0
VERTEX
  8
0
 10
309.000000
 20
386.000000
 42
0.000000
  0
SEQEND
  0
POLYLINE
  8
0
 66
1
 70
1
  0
VERTEX
  8
0
 10
699.000000
 20
325.500000
 42
-0.000509
  0
VERTEX
  8
0
 10
698.977551
 20
303.451579
 42
-0.000849
  0
VERTEX
  8
0
 10
698.908229
 20
284.890625
 42
-0.000029
  0
VERTEX
  8
0
 10
698.816177
 20
268.127878
 42
-0.412589
  0
VERTEX
  8
0
 10
698.687588
 20
268.000000
 42
-0.079135
  0
VERTEX
  8
0
 10
698.447945
 20
268.038167
 42
-0.000314
  0
VERTEX
  8
0
 10
695.841530
 20
268.891814
 42
-0.001585
  0
VERTEX
  8
0
 10
692.886260
 20
269.872155
 42
-0.000996
  0
VERTEX
  8
0
 10
689.437588
 20
271.035961
 42
0.025332
  0
VERTEX
  8
0
 10
662.700930
 20
278.631741
 42
0.024240
  0
VERTEX
  8
0
 10
634.938380
 20
283.617136
 42
0.024900
  0
VERTEX
  8
0
 10
607.669246
 20
285.787336
 42
0.031590
  0
VERTEX
  8
0
 10
582.423678
 20
284.940448
 42
0.014530
  0
VERTEX
  8
0
 10
562.823842
 20
282.462660
 42
0.018781
  0
VERTEX
  8
0
 10
545.027246
 20
278.996313
 42
0.017053
  0
VERTEX
  8
0
 10
526.252267
 20
273.920698
 42
0.009221
  0
VERTEX
  8
0
 10
503.500000
 20
266.467265
 42
-0.010336
  0
VERTEX
  8
0
 10
482.331186
 20
259.584761
 42
-0.016982
  0
VERTEX
  8
0
 10
464.128769
 20
254.748128
 42
-0.018233
  0
VERTEX
  8
0
 10
446.604716
 20
251.390822
 42
-0.014701
  0
VERTEX
  8
0
 10
427.576322
 20
249.030183
 42
-0.029763
  0
VERTEX
  8
0
 10
402.963512
 20
248.180201
 42
-0.026508
  0
VERTEX
  8
0
 10
377.441413
 20
250.174779
 42
-0.025081
  0
VERTEX
  8
0
 10
350.904699
 20
255.035114
 42
-0.020806
  0
VERTEX
  8
0
 10
323.250000
 20
262.775293
 42
0.000000
  0
VERTEX
  8
0
 10
312.000000
 20
266.434989
 42
0.000000
  0
VERTEX
  8
0
 10
312.000000
 20
324.717495
 42
0.000000
  0
VERTEX
  8
0
 10
312.000000
 20
383.000000
 42
0.000000
  0
VERTEX
  8
0
 10
505.500000
 20
383.000000
 42
0.000000
  0
VERTEX
  8
0
 10
699.000000
 20
383.000000
 42
0.000000
  0
SEQEND
  0
POLYLINE
  8
0
 66
1
 70
1
  0
VERTEX
  8
0
 10
438.608246
 20
197.759590
 42
0.000000
  0
VERTEX
  8
0
 10
449.072393
 20
174.519180
 42
0.000000
  0
VERTEX
  8
0
 10
438.612494
 20
151.259590
 42
0.000000
  0
VERTEX
  8
0
 10
428.152594
 20
128.000000
 42
0.000000
  0
VERTEX
  8
0
 10
694.875519
 20
128.000000
 42
0.000000
  0
VERTEX
  8
0
 10
961.598443
 20
128.000000
 42
0.000000
  0
VERTEX
  8
0
 10
971.870948
 20
151.194869
 42
0.002736
  0
VERTEX
  8
0
 10
977.043583
 20
163.049200
 42
0.012569
  0
VERTEX
  8
0
 10
979.831202
 20
170.011569
 42
0.015828
  0
VERTEX
  8
0
 10
981.361465
 20
174.567463
 42
0.177304
  0
VERTEX
  8
0
 10
981.251384
 20
176.444869
 42
0.001426
  0
VERTEX
  8
0
 10
980.606337
 20
177.919390
 42
0.000042
  0
VERTEX
  8
0
 10
977.863941
 20
184.138493
 42
0.000084
  0
VERTEX
  8
0
 10
974.633753
 20
191.458815
 42
0.000058
  0
VERTEX
  8
0
 10
970.972355
 20
199.750000
 42
0.000000
  0
VERTEX
  8
0
 10
961.585394
 20
221.000000
 42
0.000000
  0
VERTEX
  8
0
 10
694.864747
 20
221.000000
 42
0.000000
  0
VERTEX
  8
0
 10
428.144099
 20
221.000000
 42
0.000000
  0
SEQEND
  0
POLYLINE
  8
0
 66
1
 70
1
  0
VERTEX
  8
0
 10
969.298354
 20
196.257349
 42
0.000000
  0
VERTEX
  8
0
 10
978.987114
 20
174.514697
 42
0.000000
  0
VERTEX
  8
0
 10
969.301659
 20
152.757349
 42
0.000000
  0
VERTEX
  8
0
 10
959.616205
 20
131.000000
 42
0.000000
  0
VERTEX
  8
0
 10
696.201113
 20
131.000000
 42
-0.000181
  0
VERTEX
  8
0
 10
559.184561
 20
131.049502
 42
-0.001008
  0
VERTEX
  8
0
 10
485.719328
 20
131.250696
 42
-0.000109
  0
VERTEX
  8
0
 10
433.795511
 20
131.508923
 42
-0.532611
  0
VERTEX
  8
0
 10
433.302731
 20
132.250000
 42
-0.007098
  0
VERTEX
  8
0
 10
433.706292
 20
133.188323
 42
-0.000091
  0
VERTEX
  8
0
 10
436.337926
 20
139.072571
 42
-0.000265
  0
VERTEX
  8
0
 10
439.388495
 20
145.880549
 42
-0.000174
  0
VERTEX
  8
0
 10
442.909719
 20
153.720455
 42
0.000968
  0
VERTEX
  8
0
 10
446.394644
 20
161.512625
 42
0.001559
  0
VERTEX
  8
0
 10
449.329730
 20
168.165384
 42
0.000239
  0
VERTEX
  8
0
 10
451.911054
 20
174.073734
 42
0.103220
  0
VERTEX
  8
0
 10
452.000000
 20
174.500000
 42
0.103220
  0
VERTEX
  8
0
 10
451.911054
 20
174.926266
 42
0.000239
  0
VERTEX
  8
0
 10
449.329730
 20
180.834616
 42
0.001559
  0
VERTEX
  8
0
 10
446.394644
 20
187.487375
 42
0.000968
  0
VERTEX
  8
0
 10
442.909719
 20
195.279545
 42
-0.000174
  0
VERTEX
  8
0
 10
439.388495
 20
203.119451
 42
-0.000265
  0
VERTEX
  8
0
 10
436.337926
 20
209.927429
 42
-0.000091
  0
VERTEX
  8
0
 10
433.706292
 20
215.811677
 42
-0.007098
  0
VERTEX
  8
0
 10
433.302731
 20
216.750000
 42
-0.532611
  0
VERTEX
  8
0
 10
433.795511
 20
217.491076
 42
-0.000109
  0
VERTEX
  8
0
 10
485.718667
 20
217.749304
 42
-0.001008
  0
VERTEX
  8
0
 10
559.182978
 20
217.950498
 42
-0.000181
  0
VERTEX
  8
0
 10
696.197808
 20
218.000000
 42
0.000000
  0
VERTEX
  8
0
 10
959.609594
 20
218.000000
 42
0.000000
  0
SEQEND
  0
ENDSEC
  0
EOF
