  0
SECTION
  2
HEADER
  9
$ACADVER
  1
AC1006
  9
$EXTMIN
 10
0.000000
 20
0.000000
 30
0.000000
  9
$EXTMAX
 10
1100.000000
 20
850.000000
 30
0.000000
  0
ENDSEC
  0
SECTION
  2
ENTITIES
  0
POLYLINE
  8
0
 66
1
 70
1
  0
VERTEX
  8
0
 10
502.500000
 20
734.528296
 42
0.031714
  0
VERTEX
  8
0
 10
486.857177
 20
731.089974
 42
0.040514
  0
VERTEX
  8
0
 10
473.053836
 20
725.882511
 42
0.044701
  0
VERTEX
  8
0
 10
461.478823
 20
719.083748
 42
0.059923
  0
VERTEX
  8
0
 10
452.500000
 20
710.883235
 42
-0.010370
  0
VERTEX
  8
0
 10
449.426513
 20
707.460632
 42
-0.064280
  0
VERTEX
  8
0
 10
447.608803
 20
705.960513
 42
-0.098104
  0
VERTEX
  8
0
 10
445.815164
 20
705.273066
 42
-0.040369
  0
VERTEX
  8
0
 10
443.210586
 20
705.038740
 42
0.020862
  0
VERTEX
  8
0
 10
436.443488
 20
704.695019
 42
0.008879
  0
VERTEX
  8
0
 10
427.423416
 20
703.696728
 42
0.008923
  0
VERTEX
  8
0
 10
418.162514
 20
702.336551
 42
0.015276
  0
VERTEX
  8
0
 10
410.500000
 20
700.829295
 42
0.023229
  0
VERTEX
  8
0
 10
397.726496
 20
697.277274
 42
0.034457
  0
VERTEX
  8
0
 10
386.970947
 20
692.899309
 42
0.039417
  0
VERTEX
  8
0
 10
378.137654
 20
687.673261
 42
0.053312
  0
VERTEX
  8
0
 10
371.165084
 20
681.563269
 42
0.029631
  0
VERTEX
  8
0
 10
367.778181
 20
677.421504
 42
0.053244
  0
VERTEX
  8
0
 10
365.599764
 20
673.615361
 42
0.058777
  0
VERTEX
  8
0
 10
364.408016
 20
669.707867
 42
0.045833
  0
VERTEX
  8
0
 10
364.021962
 20
665.282119
 42
0.087643
  0
VERTEX
  8
0
 10
365.315298
 20
658.151696
 42
0.085817
  0
VERTEX
  8
0
 10
368.976781
 20
651.837382
 42
0.070764
  0
VERTEX
  8
0
 10
375.228385
 20
646.211083
 42
0.038429
  0
VERTEX
  8
0
 10
384.243796
 20
641.112584
 42
0.000000
  0
VERTEX
  8
0
 10
391.987591
 20
637.487099
 42
0.000000
  0
VERTEX
  8
0
 10
387.306005
 20
633.993550
 42
0.109509
  0
VERTEX
  8
0
 10
380.343976
 20
625.919275
 42
0.134604
  0
VERTEX
  8
0
 10
378.123691
 20
616.254589
 42
0.125801
  0
VERTEX
  8
0
 10
381.112795
 20
606.313188
 42
0.089120
  0
VERTEX
  8
0
 10
388.831158
 20
597.515321
 42
0.045396
  0
VERTEX
  8
0
 10
398.719674
 20
591.006014
 42
0.037058
  0
VERTEX
  8
0
 10
410.305240
 20
585.868924
 42
0.033944
  0
VERTEX
  8
0
 10
423.543666
 20
582.127831
 42
0.026101
  0
VERTEX
  8
0
 10
438.386026
 20
579.803188
 42
0.022356
  0
VERTEX
  8
0
 10
446.792689
 20
579.311132
 42
0.021493
  0
VERTEX
  8
0
 10
455.321548
 20
579.560410
 42
0.021855
  0
VERTEX
  8
0
 10
463.644369
 20
580.529376
 42
0.025440
  0
VERTEX
  8
0
 10
471.432819
 20
582.193275
 42
-0.028870
  0
VERTEX
  8
0
 10
474.132835
 20
582.750776
 42
-0.115482
  0
VERTEX
  8
0
 10
475.803744
 20
582.610004
 42
-0.079461
  0
VERTEX
  8
0
 10
477.547328
 20
581.718647
 42
-0.009430
  0
VERTEX
  8
0
 10
481.016737
 20
579.081005
 42
0.097509
  0
VERTEX
  8
0
 10
509.884052
 20
564.253978
 42
0.042563
  0
VERTEX
  8
0
 10
552.315233
 20
555.872903
 42
0.040599
  0
VERTEX
  8
0
 10
599.579632
 20
554.512114
 42
0.047602
  0
VERTEX
  8
0
 10
643.916421
 20
561.099803
 42
0.013296
  0
VERTEX
  8
0
 10
657.857118
 20
564.946412
 42
0.023599
  0
VERTEX
  8
0
 10
669.077844
 20
568.953602
 42
0.026863
  0
VERTEX
  8
0
 10
678.805430
 20
573.579699
 42
0.025684
  0
VERTEX
  8
0
 10
688.133079
 20
579.285418
 42
-0.015479
  0
VERTEX
  8
0
 10
692.387640
 20
582.008725
 42
-0.064361
  0
VERTEX
  8
0
 10
695.176419
 20
583.220407
 42
-0.048346
  0
VERTEX
  8
0
 10
698.532869
 20
583.847541
 42
-0.006226
  0
VERTEX
  8
0
 10
705.833826
 20
584.400879
 42
0.017477
  0
VERTEX
  8
0
 10
720.844919
 20
585.878861
 42
0.022692
  0
VERTEX
  8
0
 10
734.446917
 20
588.332523
 42
0.025402
  0
VERTEX
  8
0
 10
745.962271
 20
591.577091
 42
0.051734
  0
VERTEX
  8
0
 10
754.500000
 20
595.480363
 42
0.058548
  0
VERTEX
  8
0
 10
760.277596
 20
599.864732
 42
0.057202
  0
VERTEX
  8
0
 10
764.932930
 20
605.500555
 42
0.060389
  0
VERTEX
  8
0
 10
767.974735
 20
611.710157
 42
0.084819
  0
VERTEX
  8
0
 10
768.990231
 20
617.784947
 42
0.122105
  0
VERTEX
  8
0
 10
767.254365
 20
624.680733
 42
0.053276
  0
VERTEX
  8
0
 10
761.920030
 20
632.544165
 42
0.047587
  0
VERTEX
  8
0
 10
754.063307
 20
640.211204
 42
0.042527
  0
VERTEX
  8
0
 10
744.610059
 20
646.582867
 42
0.000000
  0
VERTEX
  8
0
 10
736.117599
 20
651.311730
 42
0.000000
  0
VERTEX
  8
0
 10
740.365530
 20
656.167753
 42
0.067368
  0
VERTEX
  8
0
 10
745.301661
 20
663.633785
 42
0.081281
  0
VERTEX
  8
0
 10
747.682079
 20
671.686124
 42
0.082849
  0
VERTEX
  8
0
 10
747.350467
 20
679.952529
 42
0.073386
  0
VERTEX
  8
0
 10
744.378508
 20
688.045889
 42
0.103904
  0
VERTEX
  8
0
 10
735.519928
 20
698.446600
 42
0.053155
  0
VERTEX
  8
0
 10
720.857625
 20
707.477051
 42
0.045492
  0
VERTEX
  8
0
 10
701.817850
 20
714.532906
 42
0.033174
  0
VERTEX
  8
0
 10
679.677641
 20
718.966781
 42
0.028665
  0
VERTEX
  8
0
 10
666.121213
 20
719.971949
 42
0.015917
  0
VERTEX
  8
0
 10
649.538852
 20
719.720986
 42
0.015925
  0
VERTEX
  8
0
 10
633.094802
 20
718.422328
 42
0.030145
  0
VERTEX
  8
0
 10
620.000000
 20
716.162004
 42
-0.045751
  0
VERTEX
  8
0
 10
617.983285
 20
715.878297
 42
-0.056879
  0
VERTEX
  8
0
 10
616.094762
 20
716.001819
 42
-0.044075
  0
VERTEX
  8
0
 10
613.937095
 20
716.592110
 42
-0.016056
  0
VERTEX
  8
0
 10
611.000000
 20
717.789972
 42
0.012748
  0
VERTEX
  8
0
 10
598.768355
 20
722.873154
 42
0.016356
  0
VERTEX
  8
0
 10
587.261666
 20
726.887383
 42
0.016113
  0
VERTEX
  8
0
 10
575.378017
 20
730.185585
 42
0.011788
  0
VERTEX
  8
0
 10
562.000000
 20
733.106013
 42
0.030173
  0
VERTEX
  8
0
 10
549.482212
 20
734.755620
 42
0.011700
  0
VERTEX
  8
0
 10
532.010169
 20
735.582645
 42
0.011610
  0
VERTEX
  8
0
 10
514.619320
 20
735.594468
 42
0.032615
  0
SEQEND
  0
POLYLINE
  8
0
 66
1
 70
1
  0
VERTEX
  8
0
 10
564.500000
 20
721.546615
 42
-0.014396
  0
VERTEX
  8
0
 10
575.915273
 20
718.874597
 42
-0.014587
  0
VERTEX
  8
0
 10
587.107468
 20
715.560325
 42
-0.015282
  0
VERTEX
  8
0
 10
597.476914
 20
711.803014
 42
-0.021883
  0
VERTEX
  8
0
 10
606.397643
 20
707.798387
 42
0.000000
  0
VERTEX
  8
0
 10
614.295287
 20
703.829211
 42
0.000000
  0
VERTEX
  8
0
 10
625.397643
 20
706.029887
 42
-0.026201
  0
VERTEX
  8
0
 10
638.339233
 20
707.897092
 42
-0.015984
  0
VERTEX
  8
0
 10
653.755753
 20
708.806719
 42
-0.016001
  0
VERTEX
  8
0
 10
669.147132
 20
708.729297
 42
-0.026979
  0
VERTEX
  8
0
 10
682.000000
 20
707.556786
 42
-0.034373
  0
VERTEX
  8
0
 10
699.921520
 20
703.668769
 42
-0.042579
  0
VERTEX
  8
0
 10
715.849326
 20
697.537426
 42
-0.048392
  0
VERTEX
  8
0
 10
728.222176
 20
689.963871
 42
-0.113754
  0
VERTEX
  8
0
 10
735.144687
 20
681.716389
 42
-0.108449
  0
VERTEX
  8
0
 10
736.833102
 20
675.257588
 42
-0.114799
  0
VERTEX
  8
0
 10
735.603701
 20
668.829042
 42
-0.084763
  0
VERTEX
  8
0
 10
731.161754
 20
662.146964
 42
-0.036303
  0
VERTEX
  8
0
 10
723.236872
 20
654.875561
 42
0.003720
  0
VERTEX
  8
0
 10
720.251324
 20
652.474626
 42
0.005608
  0
VERTEX
  8
0
 10
717.689137
 20
650.334229
 42
0.002428
  0
VERTEX
  8
0
 10
715.536395
 20
648.476330
 42
0.120864
  0
VERTEX
  8
0
 10
715.215509
 20
648.020485
 42
0.385539
  0
VERTEX
  8
0
 10
715.361033
 20
647.637538
 42
0.008433
  0
VERTEX
  8
0
 10
717.301282
 20
646.688730
 42
0.014745
  0
VERTEX
  8
0
 10
719.751168
 20
645.628397
 42
0.008860
  0
VERTEX
  8
0
 10
722.715509
 20
644.508349
 42
-0.027839
  0
VERTEX
  8
0
 10
735.024754
 20
639.315636
 42
-0.040918
  0
VERTEX
  8
0
 10
745.110976
 20
633.315377
 42
-0.048448
  0
VERTEX
  8
0
 10
752.508126
 20
626.889228
 42
-0.098794
  0
VERTEX
  8
0
 10
756.589620
 20
620.404505
 42
-0.014542
  0
VERTEX
  8
0
 10
757.549607
 20
617.653335
 42
-0.073645
  0
VERTEX
  8
0
 10
757.807194
 20
616.053335
 42
-0.088522
  0
VERTEX
  8
0
 10
757.564610
 20
614.587335
 42
-0.026106
  0
VERTEX
  8
0
 10
756.689511
 20
612.475088
 42
-0.151673
  0
VERTEX
  8
0
 10
750.866922
 20
606.174904
 42
-0.052105
  0
VERTEX
  8
0
 10
739.396520
 20
601.057946
 42
-0.041780
  0
VERTEX
  8
0
 10
723.684211
 20
597.346192
 42
-0.024662
  0
VERTEX
  8
0
 10
704.486563
 20
595.436418
 42
0.000000
  0
VERTEX
  8
0
 10
690.500000
 20
594.738763
 42
0.000000
  0
VERTEX
  8
0
 10
684.500000
 20
590.291485
 42
-0.046167
  0
VERTEX
  8
0
 10
671.497431
 20
582.398306
 42
-0.032438
  0
VERTEX
  8
0
 10
655.644429
 20
575.910293
 42
-0.028108
  0
VERTEX
  8
0
 10
636.745918
 20
570.732615
 42
-0.018413
  0
VERTEX
  8
0
 10
614.500000
 20
566.813348
 42
-0.028055
  0
VERTEX
  8
0
 10
601.190885
 20
565.726619
 42
-0.008325
  0
VERTEX
  8
0
 10
580.765312
 20
565.548378
 42
-0.008335
  0
VERTEX
  8
0
 10
560.337433
 20
566.050877
 42
-0.027858
  0
VERTEX
  8
0
 10
547.000000
 20
567.348212
 42
-0.021149
  0
VERTEX
  8
0
 10
526.503706
 20
571.395537
 42
-0.030364
  0
VERTEX
  8
0
 10
508.815382
 20
576.827655
 42
-0.034988
  0
VERTEX
  8
0
 10
494.313986
 20
583.454038
 42
-0.060549
  0
VERTEX
  8
0
 10
483.538219
 20
591.139065
 42
0.000000
  0
VERTEX
  8
0
 10
478.334977
 20
595.894535
 42
0.000000
  0
VERTEX
  8
0
 10
472.224809
 20
593.992837
 42
-0.025682
  0
VERTEX
  8
0
 10
464.015393
 20
591.893309
 42
-0.026828
  0
VERTEX
  8
0
 10
455.752528
 20
590.683476
 42
-0.026293
  0
VERTEX
  8
0
 10
447.255196
 20
590.350474
 42
-0.022734
  0
VERTEX
  8
0
 10
438.343191
 20
590.875689
 42
-0.039585
  0
VERTEX
  8
0
 10
419.136131
 20
594.439391
 42
-0.058599
  0
VERTEX
  8
0
 10
403.244325
 20
600.780304
 42
-0.075461
  0
VERTEX
  8
0
 10
392.568100
 20
608.851866
 42
-0.195643
  0
VERTEX
  8
0
 10
389.000000
 20
617.621757
 42
-0.086015
  0
VERTEX
  8
0
 10
389.255562
 20
619.096333
 42
-0.054317
  0
VERTEX
  8
0
 10
390.019843
 20
620.671499
 42
-0.041601
  0
VERTEX
  8
0
 10
391.332576
 20
622.422089
 42
-0.020048
  0
VERTEX
  8
0
 10
393.279106
 20
624.442939
 42
-0.059351
  0
VERTEX
  8
0
 10
397.563973
 20
627.669833
 42
-0.029814
  0
VERTEX
  8
0
 10
403.620497
 20
630.725821
 42
-0.020359
  0
VERTEX
  8
0
 10
412.283604
 20
634.055869
 42
-0.006764
  0
VERTEX
  8
0
 10
425.228977
 20
638.241793
 42
0.000000
  0
VERTEX
  8
0
 10
435.957953
 20
641.551410
 42
0.000000
  0
VERTEX
  8
0
 10
419.728977
 20
643.856034
 42
-0.027083
  0
VERTEX
  8
0
 10
395.897403
 20
648.568360
 42
-0.088578
  0
VERTEX
  8
0
 10
381.322723
 20
655.183300
 42
-0.193101
  0
VERTEX
  8
0
 10
375.881147
 20
663.371741
 42
-0.211036
  0
VERTEX
  8
0
 10
377.870612
 20
672.662688
 42
-0.109290
  0
VERTEX
  8
0
 10
386.658099
 20
680.466335
 42
-0.047216
  0
VERTEX
  8
0
 10
401.066375
 20
686.798826
 42
-0.039857
  0
VERTEX
  8
0
 10
419.620854
 20
691.340542
 42
-0.027107
  0
VERTEX
  8
0
 10
441.245374
 20
693.645375
 42
0.000000
  0
VERTEX
  8
0
 10
453.990748
 20
694.308498
 42
0.000000
  0
VERTEX
  8
0
 10
456.479570
 20
698.555350
 42
-0.081319
  0
VERTEX
  8
0
 10
462.980665
 20
706.394315
 42
-0.052669
  0
VERTEX
  8
0
 10
472.652650
 20
713.167258
 42
-0.044307
  0
VERTEX
  8
0
 10
485.302975
 20
718.772684
 42
-0.028418
  0
VERTEX
  8
0
 10
500.785008
 20
723.086271
 42
-0.019530
  0
VERTEX
  8
0
 10
506.306083
 20
724.067288
 42
-0.021537
  0
VERTEX
  8
0
 10
511.709655
 20
724.575240
 42
-0.014017
  0
VERTEX
  8
0
 10
518.771861
 20
724.735081
 42
-0.003359
  0
VERTEX
  8
0
 10
530.500000
 20
724.592938
 42
-0.004216
  0
VERTEX
  8
0
 10
542.216443
 20
724.273361
 42
-0.013415
  0
VERTEX
  8
0
 10
550.033453
 20
723.783922
 42
-0.017027
  0
VERTEX
  8
0
 10
556.758757
 20
722.949709
 42
-0.010921
  0
SEQEND
  0
POLYLINE
  8
0
 66
1
 70
1
  0
VERTEX
  8
0
 10
104.871832
 20
730.250000
 42
0.017554
  0
VERTEX
  8
0
 10
95.676205
 20
706.791306
 42
0.029204
  0
VERTEX
  8
0
 10
89.809036
 20
686.394403
 42
0.031232
  0
VERTEX
  8
0
 10
86.607539
 20
666.461431
 42
0.024207
  0
VERTEX
  8
0
 10
85.543669
 20
644.500000
 42
0.023726
  0
VERTEX
  8
0
 10
86.553710
 20
623.226340
 42
0.029786
  0
VERTEX
  8
0
 10
89.589642
 20
603.725166
 42
0.028457
  0
VERTEX
  8
0
 10
95.060498
 20
584.025961
 42
0.018886
  0
VERTEX
  8
0
 10
103.448260
 20
562.112324
 42
0.000000
  0
VERTEX
  8
0
 10
106.696612
 20
554.500000
 42
0.000000
  0
VERTEX
  8
0
 10
187.848306
 20
554.244120
 42
0.000303
  0
VERTEX
  8
0
 10
218.965997
 20
554.164889
 42
0.000506
  0
VERTEX
  8
0
 10
245.161690
 20
554.140612
 42
0.000010
  0
VERTEX
  8
0
 10
268.892077
 20
554.143135
 42
0.414176
  0
VERTEX
  8
0
 10
269.000000
 20
554.251072
 42
0.103310
  0
VERTEX
  8
0
 10
268.957818
 20
554.453045
 42
0.000149
  0
VERTEX
  8
0
 10
267.406623
 20
558.001873
 42
0.001226
  0
VERTEX
  8
0
 10
265.655322
 20
561.978683
 42
0.000755
  0
VERTEX
  8
0
 10
263.575738
 20
566.650674
 42
-0.025603
  0
VERTEX
  8
0
 10
256.218024
 20
585.671194
 42
-0.023971
  0
VERTEX
  8
0
 10
250.657759
 20
605.763802
 42
-0.024526
  0
VERTEX
  8
0
 10
247.162722
 20
625.764237
 42
-0.031000
  0
VERTEX
  8
0
 10
246.000000
 20
644.500000
 42
-0.031000
  0
VERTEX
  8
0
 10
247.162722
 20
663.235763
 42
-0.024526
  0
VERTEX
  8
0
 10
250.657759
 20
683.236198
 42
-0.023971
  0
VERTEX
  8
0
 10
256.218024
 20
703.328806
 42
-0.025603
  0
VERTEX
  8
0
 10
263.575738
 20
722.349326
 42
0.000738
  0
VERTEX
  8
0
 10
265.655329
 20
727.020910
 42
0.001199
  0
VERTEX
  8
0
 10
267.406623
 20
730.996400
 42
0.000142
  0
VERTEX
  8
0
 10
268.958716
 20
734.545475
 42
0.103360
  0
VERTEX
  8
0
 10
269.000000
 20
734.743049
 42
0.413274
  0
VERTEX
  8
0
 10
268.894482
 20
734.848906
 42
0.000010
  0
VERTEX
  8
0
 10
245.195811
 20
734.924521
 42
0.000496
  0
VERTEX
  8
0
 10
219.037610
 20
734.981536
 42
0.000297
  0
VERTEX
  8
0
 10
187.964463
 20
735.000000
 42
0.000000
  0
VERTEX
  8
0
 10
106.928925
 20
735.000000
 42
0.000000
  0
SEQEND
  0
POLYLINE
  8
0
 66
1
 70
1
  0
VERTEX
  8
0
 10
251.493241
 20
722.250000
 42
0.019878
  0
VERTEX
  8
0
 10
244.123271
 20
702.117904
 42
0.027218
  0
VERTEX
  8
0
 10
239.223300
 20
683.454859
 42
0.027913
  0
VERTEX
  8
0
 10
236.462636
 20
664.748313
 42
0.022681
  0
VERTEX
  8
0
 10
235.543669
 20
644.500000
 42
0.022681
  0
VERTEX
  8
0
 10
236.462636
 20
624.251687
 42
0.027913
  0
VERTEX
  8
0
 10
239.223300
 20
605.545141
 42
0.027218
  0
VERTEX
  8
0
 10
244.123271
 20
586.882096
 42
0.019878
  0
VERTEX
  8
0
 10
251.493241
 20
566.750000
 42
-0.514909
  0
VERTEX
  8
0
 10
250.786294
 20
565.623221
 42
-0.008459
  0
VERTEX
  8
0
 10
242.106967
 20
565.253730
 42
-0.005967
  0
VERTEX
  8
0
 10
226.355751
 20
565.037997
 42
-0.000440
  0
VERTEX
  8
0
 10
183.225658
 20
565.000000
 42
0.000000
  0
VERTEX
  8
0
 10
114.237338
 20
565.000000
 42
0.000000
  0
VERTEX
  8
0
 10
110.725557
 20
573.250000
 42
-0.028469
  0
VERTEX
  8
0
 10
104.803980
 20
589.700836
 42
-0.021201
  0
VERTEX
  8
0
 10
100.100371
 20
608.418083
 42
-0.021276
  0
VERTEX
  8
0
 10
97.018327
 20
627.364377
 42
-0.029688
  0
VERTEX
  8
0
 10
96.000000
 20
644.500000
 42
-0.029558
  0
VERTEX
  8
0
 10
96.974156
 20
660.964299
 42
-0.019573
  0
VERTEX
  8
0
 10
99.942438
 20
679.673879
 42
-0.019595
  0
VERTEX
  8
0
 10
104.355543
 20
698.052102
 42
-0.030115
  0
VERTEX
  8
0
 10
109.734341
 20
713.500000
 42
0.001047
  0
VERTEX
  8
0
 10
110.755563
 20
715.962111
 42
0.001087
  0
VERTEX
  8
0
 10
111.753924
 20
718.398438
 42
0.001046
  0
VERTEX
  8
0
 10
112.608928
 20
720.510555
 42
0.004717
  0
VERTEX
  8
0
 10
113.094116
 20
721.750000
 42
0.000000
  0
VERTEX
  8
0
 10
113.950498
 20
724.000000
 42
0.000000
  0
VERTEX
  8
0
 10
183.082238
 20
724.000000
 42
-0.000440
  0
VERTEX
  8
0
 10
226.302587
 20
723.962004
 42
-0.005954
  0
VERTEX
  8
0
 10
242.086482
 20
723.746278
 42
-0.008424
  0
VERTEX
  8
0
 10
250.786011
 20
723.376991
 42
-0.514969
  0
SEQEND
  0
POLYLINE
  8
0
 66
1
 70
1
  0
VERTEX
  8
0
 10
858.498351
 20
635.933011
 42
0.000220
  0
VERTEX
  8
0
 10
835.391985
 20
617.019517
 42
0.000353
  0
VERTEX
  8
0
 10
815.694382
 20
600.858504
 42
0.000056
  0
VERTEX
  8
0
 10
798.245806
 20
586.518808
 42
0.021649
  0
VERTEX
  8
0
 10
797.035714
 20
585.433011
 42
0.657655
  0
VERTEX
  8
0
 10
797.368017
 20
584.569307
 42
0.004663
  0
VERTEX
  8
0
 10
807.765727
 20
584.249886
 42
0.004783
  0
VERTEX
  8
0
 10
825.208071
 20
584.043733
 42
0.000563
  0
VERTEX
  8
0
 10
864.037363
 20
584.000000
 42
0.000000
  0
VERTEX
  8
0
 10
932.503297
 20
584.000000
 42
0.000000
  0
VERTEX
  8
0
 10
992.501649
 20
633.066989
 42
0.000220
  0
VERTEX
  8
0
 10
1015.608015
 20
651.980483
 42
0.000353
  0
VERTEX
  8
0
 10
1035.305618
 20
668.141496
 42
0.000056
  0
VERTEX
  8
0
 10
1052.754194
 20
682.481192
 42
0.021649
  0
VERTEX
  8
0
 10
1053.964286
 20
683.566989
 42
0.657655
  0
VERTEX
  8
0
 10
1053.631983
 20
684.430693
 42
0.004663
  0
VERTEX
  8
0
 10
1043.234273
 20
684.750114
 42
0.004783
  0
VERTEX
  8
0
 10
1025.791929
 20
684.956267
 42
0.000563
  0
VERTEX
  8
0
 10
986.962637
 20
685.000000
 42
0.000000
  0
VERTEX
  8
0
 10
918.496703
 20
685.000000
 42
0.000000
  0
SEQEND
  0
POLYLINE
  8
0
 66
1
 70
1
  0
VERTEX
  8
0
 10
1022.472222
 20
672.086957
 42
-0.020179
  0
VERTEX
  8
0
 10
1020.893403
 20
670.674572
 42
-0.000154
  0
VERTEX
  8
0
 10
1007.566935
 20
659.694702
 42
-0.000572
  0
VERTEX
  8
0
 10
992.274179
 20
647.131999
 42
-0.000367
  0
VERTEX
  8
0
 10
974.500322
 20
632.586957
 42
0.000000
  0
VERTEX
  8
0
 10
928.500644
 20
595.000000
 42
0.000000
  0
VERTEX
  8
0
 10
877.528100
 20
595.000000
 42
-0.000496
  0
VERTEX
  8
0
 10
844.023621
 20
595.033230
 42
-0.009260
  0
VERTEX
  8
0
 10
833.466444
 20
595.249710
 42
-0.036533
  0
VERTEX
  8
0
 10
828.873071
 20
595.766582
 42
-0.608416
  0
VERTEX
  8
0
 10
828.527778
 20
596.913043
 42
-0.020179
  0
VERTEX
  8
0
 10
830.106597
 20
598.325428
 42
-0.000154
  0
VERTEX
  8
0
 10
843.433065
 20
609.305298
 42
-0.000572
  0
VERTEX
  8
0
 10
858.725821
 20
621.868001
 42
-0.000367
  0
VERTEX
  8
0
 10
876.499678
 20
636.413043
 42
0.000000
  0
VERTEX
  8
0
 10
922.499356
 20
674.000000
 42
0.000000
  0
VERTEX
  8
0
 10
973.471900
 20
674.000000
 42
-0.000496
  0
VERTEX
  8
0
 10
1006.976379
 20
673.966770
 42
-0.009260
  0
VERTEX
  8
0
 10
1017.533556
 20
673.750290
 42
-0.036533
  0
VERTEX
  8
0
 10
1022.126929
 20
673.233418
 42
-0.608416
  0
SEQEND
  0
POLYLINE
  8
0
 66
1
 70
1
  0
VERTEX
  8
0
 10
580.000000
 20
531.896166
 42
0.017179
  0
VERTEX
  8
0
 10
562.424343
 20
529.752354
 42
0.016039
  0
VERTEX
  8
0
 10
544.626303
 20
526.369906
 42
0.014674
  0
VERTEX
  8
0
 10
525.651282
 20
521.540422
 42
0.010180
  0
VERTEX
  8
0
 10
504.500000
 20
515.022348
 42
-0.008816
  0
VERTEX
  8
0
 10
482.440693
 20
508.158542
 42
-0.015920
  0
VERTEX
  8
0
 10
464.116491
 20
503.436896
 42
-0.017701
  0
VERTEX
  8
0
 10
446.934314
 20
500.222305
 42
-0.014775
  0
VERTEX
  8
0
 10
428.500000
 20
497.999421
 42
-0.030284
  0
VERTEX
  8
0
 10
401.973965
 20
497.205839
 42
-0.025897
  0
VERTEX
  8
0
 10
374.104753
 20
499.508102
 42
-0.025135
  0
VERTEX
  8
0
 10
345.748030
 20
504.799044
 42
-0.024358
  0
VERTEX
  8
0
 10
317.760721
 20
512.950960
 42
0.001285
  0
VERTEX
  8
0
 10
313.223124
 20
514.503007
 42
0.002019
  0
VERTEX
  8
0
 10
309.316121
 20
515.810595
 42
0.000500
  0
VERTEX
  8
0
 10
305.894174
 20
516.936705
 42
0.079397
  0
VERTEX
  8
0
 10
305.498090
 20
517.000000
 42
0.411832
  0
VERTEX
  8
0
 10
305.285010
 20
516.788647
 42
0.000211
  0
VERTEX
  8
0
 10
305.205620
 20
506.498438
 42
0.002288
  0
VERTEX
  8
0
 10
305.174270
 20
494.958357
 42
0.001372
  0
VERTEX
  8
0
 10
305.237369
 20
481.250000
 42
0.000000
  0
VERTEX
  8
0
 10
305.500000
 20
445.500000
 42
0.000000
  0
VERTEX
  8
0
 10
316.000000
 20
441.834373
 42
0.026243
  0
VERTEX
  8
0
 10
342.312879
 20
434.170860
 42
0.023384
  0
VERTEX
  8
0
 10
370.314218
 20
428.954648
 42
0.023624
  0
VERTEX
  8
0
 10
398.347345
 20
426.419886
 42
0.028595
  0
VERTEX
  8
0
 10
424.750000
 20
426.795849
 42
0.015012
  0
VERTEX
  8
0
 10
445.225430
 20
428.879921
 42
0.018934
  0
VERTEX
  8
0
 10
463.997386
 20
432.089118
 42
0.017575
  0
VERTEX
  8
0
 10
483.550122
 20
436.922319
 42
0.010431
  0
VERTEX
  8
0
 10
506.500000
 20
443.979757
 42
-0.008808
  0
VERTEX
  8
0
 10
528.564060
 20
450.843274
 42
-0.015913
  0
VERTEX
  8
0
 10
546.888678
 20
455.564226
 42
-0.017696
  0
VERTEX
  8
0
 10
564.068838
 20
458.778142
 42
-0.014773
  0
VERTEX
  8
0
 10
582.500000
 20
461.000579
 42
-0.030284
  0
VERTEX
  8
0
 10
609.026035
 20
461.794161
 42
-0.025897
  0
VERTEX
  8
0
 10
636.895247
 20
459.491898
 42
-0.025135
  0
VERTEX
  8
0
 10
665.251970
 20
454.200956
 42
-0.024358
  0
VERTEX
  8
0
 10
693.239279
 20
446.049040
 42
0.001285
  0
VERTEX
  8
0
 10
697.776876
 20
444.496993
 42
0.002019
  0
VERTEX
  8
0
 10
701.683879
 20
443.189405
 42
0.000500
  0
VERTEX
  8
0
 10
705.105826
 20
442.063295
 42
0.079397
  0
VERTEX
  8
0
 10
705.501910
 20
442.000000
 42
0.411832
  0
VERTEX
  8
0
 10
705.714990
 20
442.211353
 42
0.000211
  0
VERTEX
  8
0
 10
705.794380
 20
452.501562
 42
0.002288
  0
VERTEX
  8
0
 10
705.825730
 20
464.041643
 42
0.001372
  0
VERTEX
  8
0
 10
705.762631
 20
477.750000
 42
0.000000
  0
VERTEX
  8
0
 10
705.500000
 20
513.500000
 42
0.000000
  0
VERTEX
  8
0
 10
696.000000
 20
516.841905
 42
0.027568
  0
VERTEX
  8
0
 10
668.030854
 20
524.979651
 42
0.024745
  0
VERTEX
  8
0
 10
638.310929
 20
530.342845
 42
0.024913
  0
VERTEX
  8
0
 10
608.434635
 20
532.715247
 42
0.029120
  0
SEQEND
  0
POLYLINE
  8
0
 66
1
 70
1
  0
VERTEX
  8
0
 10
623.500000
 20
521.000579
 42
-0.011048
  0
VERTEX
  8
0
 10
638.829893
 20
519.267839
 42
-0.015168
  0
VERTEX
  8
0
 10
652.515993
 20
516.989162
 42
-0.014516
  0
VERTEX
  8
0
 10
666.491761
 20
513.800072
 42
-0.008937
  0
VERTEX
  8
0
 10
682.750000
 20
509.278621
 42
0.000000
  0
VERTEX
  8
0
 10
695.000000
 20
505.634792
 42
0.000000
  0
VERTEX
  8
0
 10
695.000000
 20
481.371257
 42
0.000000
  0
VERTEX
  8
0
 10
695.000000
 20
457.107723
 42
0.000000
  0
VERTEX
  8
0
 10
689.250000
 20
459.108443
 42
0.023321
  0
VERTEX
  8
0
 10
674.644408
 20
463.438553
 42
0.013838
  0
VERTEX
  8
0
 10
656.894960
 20
467.294237
 42
0.013393
  0
VERTEX
  8
0
 10
637.980124
 20
470.335962
 42
0.015299
  0
VERTEX
  8
0
 10
619.750000
 20
472.203158
 42
0.027297
  0
VERTEX
  8
0
 10
592.326350
 20
472.666458
 42
0.027589
  0
VERTEX
  8
0
 10
565.113881
 20
470.132469
 42
0.025421
  0
VERTEX
  8
0
 10
536.423579
 20
464.351106
 42
0.017366
  0
VERTEX
  8
0
 10
504.500000
 20
455.018811
 42
-0.008802
  0
VERTEX
  8
0
 10
482.432704
 20
448.155490
 42
-0.015908
  0
VERTEX
  8
0
 10
464.107804
 20
443.435011
 42
-0.017693
  0
VERTEX
  8
0
 10
446.929017
 20
440.221554
 42
-0.014772
  0
VERTEX
  8
0
 10
428.500000
 20
437.999421
 42
-0.028723
  0
VERTEX
  8
0
 10
403.526806
 20
437.174359
 42
-0.024342
  0
VERTEX
  8
0
 10
377.188291
 20
439.102595
 42
-0.023733
  0
VERTEX
  8
0
 10
350.443386
 20
443.671803
 42
-0.023728
  0
VERTEX
  8
0
 10
324.250000
 20
450.755326
 42
0.000000
  0
VERTEX
  8
0
 10
316.000000
 20
453.412236
 42
0.000000
  0
VERTEX
  8
0
 10
316.000000
 20
477.652257
 42
0.000000
  0
VERTEX
  8
0
 10
316.000000
 20
501.892277
 42
0.000000
  0
VERTEX
  8
0
 10
321.750000
 20
499.891557
 42
0.023321
  0
VERTEX
  8
0
 10
336.355592
 20
495.561447
 42
0.013838
  0
VERTEX
  8
0
 10
354.105040
 20
491.705763
 42
0.013393
  0
VERTEX
  8
0
 10
373.019876
 20
488.664038
 42
0.015299
  0
VERTEX
  8
0
 10
391.250000
 20
486.796842
 42
0.027443
  0
VERTEX
  8
0
 10
418.633965
 20
486.342214
 42
0.027440
  0
VERTEX
  8
0
 10
445.904105
 20
488.889441
 42
0.025313
  0
VERTEX
  8
0
 10
474.644920
 20
494.674133
 42
0.017493
  0
VERTEX
  8
0
 10
506.500000
 20
503.979757
 42
-0.017057
  0
VERTEX
  8
0
 10
539.645956
 20
513.693863
 42
-0.026635
  0
VERTEX
  8
0
 10
568.799861
 20
519.534489
 42
-0.029451
  0
VERTEX
  8
0
 10
596.082537
 20
521.875005
 42
-0.029296
  0
SEQEND
  0
POLYLINE
  8
0
 66
1
 70
1
  0
VERTEX
  8
0
 10
735.000000
 20
424.500000
 42
0.000000
  0
VERTEX
  8
0
 10
735.000000
 20
329.000000
 42
0.000000
  0
VERTEX
  8
0
 10
746.750000
 20
329.008941
 42
0.012323
  0
VERTEX
  8
0
 10
766.797246
 20
329.518374
 42
0.009464
  0
VERTEX
  8
0
 10
788.649568
 20
331.028097
 42
0.009631
  0
VERTEX
  8
0
 10
809.652270
 20
333.287533
 42
0.016630
  0
VERTEX
  8
0
 10
827.000000
 20
336.081501
 42
0.042065
  0
VERTEX
  8
0
 10
867.737302
 20
347.664507
 42
0.079359
  0
VERTEX
  8
0
 10
897.325347
 20
364.585483
 42
0.097729
  0
VERTEX
  8
0
 10
916.203590
 20
387.086056
 42
0.096737
  0
VERTEX
  8
0
 10
925.205321
 20
415.152208
 42
0.088076
  0
VERTEX
  8
0
 10
923.540647
 20
443.719570
 42
0.098479
  0
VERTEX
  8
0
 10
912.054416
 20
468.749455
 42
0.090263
  0
VERTEX
  8
0
 10
890.864949
 20
489.059138
 42
0.062218
  0
VERTEX
  8
0
 10
861.000000
 20
503.851467
 42
0.029122
  0
VERTEX
  8
0
 10
837.052928
 20
510.669733
 42
0.019707
  0
VERTEX
  8
0
 10
809.122032
 20
515.744971
 42
0.018415
  0
VERTEX
  8
0
 10
778.587655
 20
518.916971
 42
0.016483
  0
VERTEX
  8
0
 10
746.750000
 20
519.991059
 42
0.000000
  0
VERTEX
  8
0
 10
735.000000
 20
520.000000
 42
0.000000
  0
SEQEND
  0
POLYLINE
  8
0
 66
1
 70
1
  0
VERTEX
  8
0
 10
793.574098
 20
506.488330
 42
-0.022097
  0
VERTEX
  8
0
 10
827.702568
 20
501.578111
 42
-0.036703
  0
VERTEX
  8
0
 10
855.777367
 20
494.095981
 42
-0.043898
  0
VERTEX
  8
0
 10
878.333247
 20
483.980744
 42
-0.065186
  0
VERTEX
  8
0
 10
895.683830
 20
471.076106
 42
-0.040195
  0
VERTEX
  8
0
 10
902.829803
 20
462.941142
 42
-0.045795
  0
VERTEX
  8
0
 10
908.237233
 20
454.099520
 42
-0.045259
  0
VERTEX
  8
0
 10
911.992073
 20
444.329374
 42
-0.037723
  0
VERTEX
  8
0
 10
914.214028
 20
433.426796
 42
-0.052517
  0
VERTEX
  8
0
 10
914.539879
 20
417.687347
 42
-0.059567
  0
VERTEX
  8
0
 10
911.494507
 20
402.909442
 42
-0.060875
  0
VERTEX
  8
0
 10
905.134494
 20
389.532893
 42
-0.058991
  0
VERTEX
  8
0
 10
895.683830
 20
377.923894
 42
-0.076965
  0
VERTEX
  8
0
 10
874.381471
 20
362.842464
 42
-0.046889
  0
VERTEX
  8
0
 10
845.559853
 20
351.706110
 42
-0.037667
  0
VERTEX
  8
0
 10
808.701150
 20
344.245634
 42
-0.020628
  0
VERTEX
  8
0
 10
762.750000
 20
340.415554
 42
0.000000
  0
VERTEX
  8
0
 10
746.000000
 20
339.713187
 42
0.000000
  0
VERTEX
  8
0
 10
746.000000
 20
424.500000
 42
0.000000
  0
VERTEX
  8
0
 10
746.000000
 20
509.286813
 42
0.000000
  0
VERTEX
  8
0
 10
762.750000
 20
508.584446
 42
-0.003904
  0
VERTEX
  8
0
 10
770.188291
 20
508.214340
 42
-0.002594
  0
VERTEX
  8
0
 10
778.713954
 20
507.678985
 42
-0.002610
  0
VERTEX
  8
0
 10
786.985716
 20
507.073085
 42
-0.005092
  0
SEQEND
  0
POLYLINE
  8
0
 66
1
 70
1
  0
VERTEX
  8
0
 10
95.000000
 20
314.500000
 42
0.000000
  0
VERTEX
  8
0
 10
95.000000
 20
124.000000
 42
0.000000
  0
VERTEX
  8
0
 10
185.500000
 20
124.000000
 42
0.000000
  0
VERTEX
  8
0
 10
276.000000
 20
124.000000
 42
0.000000
  0
VERTEX
  8
0
 10
276.000000
 20
314.500000
 42
0.000000
  0
VERTEX
  8
0
 10
276.000000
 20
505.000000
 42
0.000000
  0
VERTEX
  8
0
 10
185.500000
 20
505.000000
 42
0.000000
  0
VERTEX
  8
0
 10
95.000000
 20
505.000000
 42
0.000000
  0
SEQEND
  0
POLYLINE
  8
0
 66
1
 70
1
  0
VERTEX
  8
0
 10
265.000000
 20
314.500000
 42
0.000000
  0
VERTEX
  8
0
 10
265.000000
 20
135.000000
 42
0.000000
  0
VERTEX
  8
0
 10
185.500000
 20
135.000000
 42
0.000000
  0
VERTEX
  8
0
 10
106.000000
 20
135.000000
 42
0.000000
  0
VERTEX
  8
0
 10
106.000000
 20
314.500000
 42
0.000000
  0
VERTEX
  8
0
 10
106.000000
 20
494.000000
 42
0.000000
  0
VERTEX
  8
0
 10
185.500000
 20
494.000000
 42
0.000000
  0
VERTEX
  8
0
 10
265.000000
 20
494.000000
 42
0.000000
  0
SEQEND
  0
POLYLINE
  8
0
 66
1
 70
1
  0
VERTEX
  8
0
 10
305.242652
 20
325.776425
 42
0.000000
  0
VERTEX
  8
0
 10
305.500000
 20
261.552849
 42
0.000000
  0
VERTEX
  8
0
 10
316.000000
 20
257.694372
 42
0.017492
  0
VERTEX
  8
0
 10
331.687710
 20
252.544767
 42
0.015167
  0
VERTEX
  8
0
 10
348.458121
 20
248.229284
 42
0.014826
  0
VERTEX
  8
0
 10
365.874223
 20
244.845805
 42
0.014724
  0
VERTEX
  8
0
 10
383.500000
 20
242.491466
 42
0.011229
  0
VERTEX
  8
0
 10
396.270857
 20
241.456257
 42
0.014607
  0
VERTEX
  8
0
 10
408.000000
 20
241.113518
 42
0.014607
  0
VERTEX
  8
0
 10
419.729143
 20
241.456257
 42
0.011229
  0
VERTEX
  8
0
 10
432.500000
 20
242.491466
 42
0.013272
  0
VERTEX
  8
0
 10
450.953371
 20
244.901820
 42
0.018881
  0
VERTEX
  8
0
 10
467.179019
 20
248.092771
 42
0.016785
  0
VERTEX
  8
0
 10
484.472639
 20
252.795386
 42
0.007893
  0
VERTEX
  8
0
 10
506.500000
 20
259.969599
 42
-0.007801
  0
VERTEX
  8
0
 10
529.643819
 20
267.512128
 42
-0.017486
  0
VERTEX
  8
0
 10
547.484478
 20
272.343665
 42
-0.019818
  0
VERTEX
  8
0
 10
564.179636
 20
275.552275
 42
-0.013388
  0
VERTEX
  8
0
 10
583.423678
 20
277.940448
 42
-0.032368
  0
VERTEX
  8
0
 10
609.242995
 20
278.766429
 42
-0.027034
  0
VERTEX
  8
0
 10
636.577023
 20
276.388157
 42
-0.026133
  0
VERTEX
  8
0
 10
664.478609
 20
270.932383
 42
-0.025218
  0
VERTEX
  8
0
 10
692.000000
 20
262.546107
 42
0.001666
  0
VERTEX
  8
0
 10
696.845099
 20
260.816544
 42
0.002568
  0
VERTEX
  8
0
 10
701.048437
 20
259.356080
 42
0.000827
  0
VERTEX
  8
0
 10
704.694896
 20
258.116781
 42
0.075479
  0
VERTEX
  8
0
 10
705.250000
 20
258.018467
 42
0.417951
  0
VERTEX
  8
0
 10
705.557976
 20
258.315404
 42
0.000127
  0
VERTEX
  8
0
 10
705.779688
 20
277.392925
 42
0.001777
  0
VERTEX
  8
0
 10
705.946107
 20
298.693529
 42
0.001065
  0
VERTEX
  8
0
 10
706.000000
 20
324.000000
 42
0.000000
  0
VERTEX
  8
0
 10
706.000000
 20
390.000000
 42
0.000000
  0
VERTEX
  8
0
 10
505.492652
 20
390.000000
 42
0.000000
  0
VERTEX
  8
0
 10
304.985304
 20
390.000000
 42
0.000000
  0
SEQEND
  0
POLYLINE
  8
0
 66
1
 70
1
  0
VERTEX
  8
0
 10
695.000000
 20
326.008593
 42
0.000000
  0
VERTEX
  8
0
 10
695.000000
 20
273.017186
 42
0.000000
  0
VERTEX
  8
0
 10
688.277247
 20
275.547623
 42
0.031373
  0
VERTEX
  8
0
 10
670.255387
 20
281.068612
 42
0.016781
  0
VERTEX
  8
0
 10
647.427513
 20
285.719543
 42
0.016658
  0
VERTEX
  8
0
 10
623.756472
 20
288.913416
 42
0.025207
  0
VERTEX
  8
0
 10
603.000000
 20
289.960484
 42
0.016198
  0
VERTEX
  8
0
 10
592.265663
 20
289.612634
 42
0.008680
  0
VERTEX
  8
0
 10
579.047933
 20
288.524377
 42
0.008660
  0
VERTEX
  8
0
 10
565.697304
 20
286.957531
 42
0.014326
  0
VERTEX
  8
0
 10
554.500000
 20
285.118368
 42
0.008607
  0
VERTEX
  8
0
 10
542.594091
 20
282.597369
 42
0.012386
  0
VERTEX
  8
0
 10
532.158017
 20
279.925428
 42
0.010286
  0
VERTEX
  8
0
 10
520.535649
 20
276.381264
 42
0.003930
  0
VERTEX
  8
0
 10
504.500000
 20
270.988524
 42
-0.008147
  0
VERTEX
  8
0
 10
481.643164
 20
263.515834
 42
-0.017677
  0
VERTEX
  8
0
 10
463.813207
 20
258.689790
 42
-0.019786
  0
VERTEX
  8
0
 10
446.996689
 20
255.465760
 42
-0.013291
  0
VERTEX
  8
0
 10
427.576322
 20
253.059552
 42
-0.031209
  0
VERTEX
  8
0
 10
403.182840
 20
252.222623
 42
-0.025049
  0
VERTEX
  8
0
 10
376.990657
 20
254.274725
 42
-0.024537
  0
VERTEX
  8
0
 10
350.511821
 20
259.020329
 42
-0.026319
  0
VERTEX
  8
0
 10
325.250000
 20
266.257935
 42
0.000000
  0
VERTEX
  8
0
 10
316.000000
 20
269.443398
 42
0.000000
  0
VERTEX
  8
0
 10
316.000000
 20
324.221699
 42
0.000000
  0
VERTEX
  8
0
 10
316.000000
 20
379.000000
 42
0.000000
  0
VERTEX
  8
0
 10
505.500000
 20
379.000000
 42
0.000000
  0
VERTEX
  8
0
 10
695.000000
 20
379.000000
 42
0.000000
  0
SEQEND
  0
POLYLINE
  8
0
 66
1
 70
1
  0
VERTEX
  8
0
 10
423.471317
 20
221.751817
 42
0.004293
  0
VERTEX
  8
0
 10
424.408765
 20
219.580251
 42
0.000265
  0
VERTEX
  8
0
 10
427.253249
 20
213.152754
 42
0.000393
  0
VERTEX
  8
0
 10
430.652071
 20
205.499889
 42
0.000291
  0
VERTEX
  8
0
 10
434.421050
 20
197.044793
 42
-0.001767
  0
VERTEX
  8
0
 10
438.092699
 20
188.742236
 42
-0.002767
  0
VERTEX
  8
0
 10
441.186183
 20
181.571987
 42
-0.000749
  0
VERTEX
  8
0
 10
443.836850
 20
175.307381
 42
-0.100026
  0
VERTEX
  8
0
 10
444.000000
 20
174.500000
 42
-0.100026
  0
VERTEX
  8
0
 10
443.836850
 20
173.692619
 42
-0.000749
  0
VERTEX
  8
0
 10
441.186183
 20
167.428013
 42
-0.002767
  0
VERTEX
  8
0
 10
438.092699
 20
160.257764
 42
-0.001767
  0
VERTEX
  8
0
 10
434.421050
 20
151.955207
 42
0.000291
  0
VERTEX
  8
0
 10
430.652071
 20
143.500111
 42
0.000393
  0
VERTEX
  8
0
 10
427.253249
 20
135.847246
 42
0.000265
  0
VERTEX
  8
0
 10
424.408765
 20
129.419749
 42
0.004293
  0
VERTEX
  8
0
 10
423.471317
 20
127.248183
 42
0.000000
  0
VERTEX
  8
0
 10
422.100535
 20
123.996366
 42
0.000000
  0
VERTEX
  8
0
 10
693.148339
 20
124.248183
 42
0.000000
  0
VERTEX
  8
0
 10
964.196143
 20
124.500000
 42
0.000000
  0
VERTEX
  8
0
 10
975.351415
 20
149.500000
 42
0.000000
  0
VERTEX
  8
0
 10
986.506687
 20
174.500000
 42
0.000000
  0
VERTEX
  8
0
 10
975.355046
 20
199.500000
 42
0.000000
  0
VERTEX
  8
0
 10
964.203406
 20
224.500000
 42
0.000000
  0
VERTEX
  8
0
 10
693.151970
 20
224.751817
 42
0.000000
  0
VERTEX
  8
0
 10
422.100535
 20
225.003634
 42
0.000000
  0
SEQEND
  0
POLYLINE
  8
0
 66
1
 70
1
  0
VERTEX
  8
0
 10
965.544437
 20
194.547750
 42
-0.002009
  0
VERTEX
  8
0
 10
968.785330
 20
187.204462
 42
-0.003120
  0
VERTEX
  8
0
 10
971.516178
 20
180.840921
 42
-0.000949
  0
VERTEX
  8
0
 10
973.838834
 20
175.304690
 42
-0.099157
  0
VERTEX
  8
0
 10
974.000000
 20
174.500000
 42
-0.099157
  0
VERTEX
  8
0
 10
973.838834
 20
173.695310
 42
-0.000949
  0
VERTEX
  8
0
 10
971.516178
 20
168.159079
 42
-0.003120
  0
VERTEX
  8
0
 10
968.785330
 20
161.795538
 42
-0.002009
  0
VERTEX
  8
0
 10
965.544437
 20
154.452250
 42
0.000000
  0
VERTEX
  8
0
 10
957.088874
 20
135.500000
 42
0.000000
  0
VERTEX
  8
0
 10
698.094670
 20
135.248100
 42
0.000000
  0
VERTEX
  8
0
 10
439.100466
 20
134.996200
 42
0.000000
  0
VERTEX
  8
0
 10
440.469718
 20
138.248100
 42
-0.004190
  0
VERTEX
  8
0
 10
441.359420
 20
140.312548
 42
-0.000389
  0
VERTEX
  8
0
 10
443.603691
 20
145.391629
 42
-0.000501
  0
VERTEX
  8
0
 10
446.290715
 20
151.443561
 42
-0.000393
  0
VERTEX
  8
0
 10
449.215782
 20
158.000000
 42
0.000000
  0
VERTEX
  8
0
 10
456.592592
 20
174.500000
 42
0.000000
  0
VERTEX
  8
0
 10
449.866045
 20
189.500000
 42
-0.000581
  0
VERTEX
  8
0
 10
447.143010
 20
195.591235
 42
-0.000642
  0
VERTEX
  8
0
 10
444.523480
 20
201.489621
 42
-0.000595
  0
VERTEX
  8
0
 10
442.299138
 20
206.531761
 42
-0.003300
  0
VERTEX
  8
0
 10
441.124378
 20
209.251900
 42
0.000000
  0
VERTEX
  8
0
 10
439.109259
 20
214.003800
 42
0.000000
  0
VERTEX
  8
0
 10
698.099066
 20
213.751900
 42
0.000000
  0
VERTEX
  8
0
 10
957.088874
 20
213.500000
 42
0.000000
  0
SEQEND
  0
ENDSEC
  0
EOF
